%TF.GenerationSoftware,KiCad,Pcbnew,(7.0.0)*%
%TF.CreationDate,2023-03-03T04:22:33-05:00*%
%TF.ProjectId,new-dev-board,6e65772d-6465-4762-9d62-6f6172642e6b,rev?*%
%TF.SameCoordinates,Original*%
%TF.FileFunction,Legend,Top*%
%TF.FilePolarity,Positive*%
%FSLAX46Y46*%
G04 Gerber Fmt 4.6, Leading zero omitted, Abs format (unit mm)*
G04 Created by KiCad (PCBNEW (7.0.0)) date 2023-03-03 04:22:33*
%MOMM*%
%LPD*%
G01*
G04 APERTURE LIST*
%ADD10C,0.100000*%
%ADD11C,0.150000*%
%ADD12C,0.120000*%
%ADD13C,0.127000*%
%ADD14C,0.200000*%
G04 APERTURE END LIST*
D10*
%TO.C,J1*%
X151066666Y-35167380D02*
X151066666Y-35881666D01*
X151066666Y-35881666D02*
X151019047Y-36024523D01*
X151019047Y-36024523D02*
X150923809Y-36119761D01*
X150923809Y-36119761D02*
X150780952Y-36167380D01*
X150780952Y-36167380D02*
X150685714Y-36167380D01*
X152066666Y-36167380D02*
X151495238Y-36167380D01*
X151780952Y-36167380D02*
X151780952Y-35167380D01*
X151780952Y-35167380D02*
X151685714Y-35310238D01*
X151685714Y-35310238D02*
X151590476Y-35405476D01*
X151590476Y-35405476D02*
X151495238Y-35453095D01*
D11*
%TO.C,Je1*%
X120298095Y-127707380D02*
X120298095Y-128421666D01*
X120298095Y-128421666D02*
X120250476Y-128564523D01*
X120250476Y-128564523D02*
X120155238Y-128659761D01*
X120155238Y-128659761D02*
X120012381Y-128707380D01*
X120012381Y-128707380D02*
X119917143Y-128707380D01*
X121155238Y-128659761D02*
X121060000Y-128707380D01*
X121060000Y-128707380D02*
X120869524Y-128707380D01*
X120869524Y-128707380D02*
X120774286Y-128659761D01*
X120774286Y-128659761D02*
X120726667Y-128564523D01*
X120726667Y-128564523D02*
X120726667Y-128183571D01*
X120726667Y-128183571D02*
X120774286Y-128088333D01*
X120774286Y-128088333D02*
X120869524Y-128040714D01*
X120869524Y-128040714D02*
X121060000Y-128040714D01*
X121060000Y-128040714D02*
X121155238Y-128088333D01*
X121155238Y-128088333D02*
X121202857Y-128183571D01*
X121202857Y-128183571D02*
X121202857Y-128278809D01*
X121202857Y-128278809D02*
X120726667Y-128374047D01*
X122155238Y-128707380D02*
X121583810Y-128707380D01*
X121869524Y-128707380D02*
X121869524Y-127707380D01*
X121869524Y-127707380D02*
X121774286Y-127850238D01*
X121774286Y-127850238D02*
X121679048Y-127945476D01*
X121679048Y-127945476D02*
X121583810Y-127993095D01*
%TO.C,A1*%
X25800000Y-24514333D02*
X26466667Y-24514333D01*
X25666667Y-24914333D02*
X26133334Y-23514333D01*
X26133334Y-23514333D02*
X26600000Y-24914333D01*
X27800000Y-24914333D02*
X27000000Y-24914333D01*
X27400000Y-24914333D02*
X27400000Y-23514333D01*
X27400000Y-23514333D02*
X27266667Y-23714333D01*
X27266667Y-23714333D02*
X27133334Y-23847666D01*
X27133334Y-23847666D02*
X27000000Y-23914333D01*
%TO.C,A2*%
X111600000Y-23814333D02*
X112266667Y-23814333D01*
X111466667Y-24214333D02*
X111933334Y-22814333D01*
X111933334Y-22814333D02*
X112400000Y-24214333D01*
X112800000Y-22947666D02*
X112866667Y-22881000D01*
X112866667Y-22881000D02*
X113000000Y-22814333D01*
X113000000Y-22814333D02*
X113333334Y-22814333D01*
X113333334Y-22814333D02*
X113466667Y-22881000D01*
X113466667Y-22881000D02*
X113533334Y-22947666D01*
X113533334Y-22947666D02*
X113600000Y-23081000D01*
X113600000Y-23081000D02*
X113600000Y-23214333D01*
X113600000Y-23214333D02*
X113533334Y-23414333D01*
X113533334Y-23414333D02*
X112733334Y-24214333D01*
X112733334Y-24214333D02*
X113600000Y-24214333D01*
D12*
%TO.C,J1*%
X125810000Y-23570000D02*
X176730000Y-23570000D01*
X125810000Y-26170000D02*
X125810000Y-23570000D01*
X125810000Y-28770000D02*
X125810000Y-27440000D01*
X127140000Y-28770000D02*
X125810000Y-28770000D01*
X128410000Y-26170000D02*
X125810000Y-26170000D01*
X128410000Y-28770000D02*
X128410000Y-26170000D01*
X128410000Y-28770000D02*
X176730000Y-28770000D01*
X176730000Y-28770000D02*
X176730000Y-23570000D01*
D10*
X118900000Y-22800000D02*
X183900000Y-22800000D01*
X183900000Y-22800000D02*
X183900000Y-78800000D01*
X183900000Y-78800000D02*
X118900000Y-78800000D01*
X118900000Y-78800000D02*
X118900000Y-22800000D01*
D12*
%TO.C,Je1*%
X115680000Y-138760000D02*
X115680000Y-139500000D01*
X115680000Y-139500000D02*
X116180000Y-139500000D01*
X115920000Y-129339000D02*
X115920000Y-139260000D01*
X115920000Y-129339000D02*
X126200000Y-129339000D01*
X115920000Y-132299000D02*
X126200000Y-132299000D01*
X115920000Y-137200000D02*
X126200000Y-137200000D01*
X115920000Y-138700000D02*
X126200000Y-138700000D01*
X115920000Y-139260000D02*
X126200000Y-139260000D01*
X122373000Y-135623000D02*
X122326000Y-135669000D01*
X122566000Y-135839000D02*
X122531000Y-135874000D01*
X124670000Y-133325000D02*
X124635000Y-133361000D01*
X124875000Y-133531000D02*
X124828000Y-133577000D01*
X126200000Y-129339000D02*
X126200000Y-139260000D01*
X116985001Y-133916001D02*
G75*
G03*
X116984574Y-135283042I1534992J-684000D01*
G01*
X119203999Y-133065001D02*
G75*
G03*
X117836958Y-133064574I-684000J-1534992D01*
G01*
X117836000Y-136134999D02*
G75*
G03*
X118548805Y-136280252I683999J1535000D01*
G01*
X118520000Y-136279999D02*
G75*
G03*
X119203318Y-136134755I0J1679999D01*
G01*
X120055000Y-135284000D02*
G75*
G03*
X120055426Y-133916958I-1535000J684000D01*
G01*
X125280000Y-134600000D02*
G75*
G03*
X125280000Y-134600000I-1680000J0D01*
G01*
D13*
%TO.C,A1*%
X22700000Y-23340000D02*
X22700000Y-45900000D01*
X22700000Y-45900000D02*
X38192800Y-45900000D01*
X22700000Y-46840000D02*
X22700000Y-152680000D01*
X22700000Y-46840000D02*
X38192800Y-46840000D01*
X24700000Y-154680000D02*
X90700000Y-154680000D01*
X41698000Y-45900000D02*
X60697200Y-45900000D01*
X41698000Y-46840000D02*
X60697200Y-46840000D01*
X65320000Y-45900000D02*
X72635200Y-45900000D01*
X65320000Y-46840000D02*
X72635200Y-46840000D01*
X76699200Y-45900000D02*
X92700000Y-45900000D01*
X76699200Y-46840000D02*
X92700000Y-46840000D01*
X90700000Y-21340000D02*
X24700000Y-21340000D01*
X92700000Y-45900000D02*
X92700000Y-23340000D01*
X92700000Y-152680000D02*
X92700000Y-46840000D01*
X24700000Y-21340000D02*
G75*
G03*
X22700000Y-23340000I-1J-1999999D01*
G01*
X22700000Y-152680000D02*
G75*
G03*
X24700000Y-154680000I1999999J-1D01*
G01*
X38192800Y-46840000D02*
G75*
G03*
X38192801Y-45900000I-7461J470000D01*
G01*
X41698000Y-45900000D02*
G75*
G03*
X41697999Y-46840000I7461J-470000D01*
G01*
X60697200Y-46840000D02*
G75*
G03*
X60697201Y-45900000I-7460J470000D01*
G01*
X65320000Y-45900000D02*
G75*
G03*
X65319999Y-46840000I7460J-470000D01*
G01*
X72635200Y-46840000D02*
G75*
G03*
X72635201Y-45900000I-7460J470000D01*
G01*
X76699200Y-45900000D02*
G75*
G03*
X76699199Y-46840000I7460J-470000D01*
G01*
X92700000Y-23340000D02*
G75*
G03*
X90700000Y-21340000I-2000000J0D01*
G01*
X90700000Y-154680000D02*
G75*
G03*
X92700000Y-152680000I0J2000000D01*
G01*
D14*
X24300000Y-53080000D02*
G75*
G03*
X24300000Y-53080000I-100000J0D01*
G01*
X31920000Y-63240000D02*
G75*
G03*
X31920000Y-63240000I-100000J0D01*
G01*
X31920000Y-86100000D02*
G75*
G03*
X31920000Y-86100000I-100000J0D01*
G01*
X77640000Y-54096000D02*
G75*
G03*
X77640000Y-54096000I-100000J0D01*
G01*
X77640000Y-81020000D02*
G75*
G03*
X77640000Y-81020000I-100000J0D01*
G01*
X85260000Y-53105400D02*
G75*
G03*
X85260000Y-53105400I-100000J0D01*
G01*
%TD*%
M02*
