%TF.GenerationSoftware,KiCad,Pcbnew,(7.0.0)*%
%TF.CreationDate,2023-03-03T14:11:26-05:00*%
%TF.ProjectId,new-dev-board,6e65772d-6465-4762-9d62-6f6172642e6b,rev?*%
%TF.SameCoordinates,Original*%
%TF.FileFunction,Soldermask,Bot*%
%TF.FilePolarity,Negative*%
%FSLAX46Y46*%
G04 Gerber Fmt 4.6, Leading zero omitted, Abs format (unit mm)*
G04 Created by KiCad (PCBNEW (7.0.0)) date 2023-03-03 14:11:26*
%MOMM*%
%LPD*%
G01*
G04 APERTURE LIST*
%ADD10O,1.700000X1.700000*%
%ADD11R,1.700000X1.700000*%
%ADD12C,2.600000*%
%ADD13R,2.600000X2.600000*%
%ADD14C,3.200000*%
%ADD15R,1.530000X1.530000*%
%ADD16C,1.530000*%
G04 APERTURE END LIST*
D10*
%TO.C,J1*%
X225249999Y-24199999D03*
X225249999Y-26739999D03*
X222709999Y-24199999D03*
X222709999Y-26739999D03*
X220169999Y-24199999D03*
X220169999Y-26739999D03*
X217629999Y-24199999D03*
X217629999Y-26739999D03*
X215089999Y-24199999D03*
X215089999Y-26739999D03*
X212549999Y-24199999D03*
X212549999Y-26739999D03*
X210009999Y-24199999D03*
X210009999Y-26739999D03*
X207469999Y-24199999D03*
X207469999Y-26739999D03*
X204929999Y-24199999D03*
X204929999Y-26739999D03*
X202389999Y-24199999D03*
X202389999Y-26739999D03*
X199849999Y-24199999D03*
X199849999Y-26739999D03*
X197309999Y-24199999D03*
X197309999Y-26739999D03*
X194769999Y-24199999D03*
X194769999Y-26739999D03*
X192229999Y-24199999D03*
X192229999Y-26739999D03*
X189689999Y-24199999D03*
X189689999Y-26739999D03*
X187149999Y-24199999D03*
X187149999Y-26739999D03*
X184609999Y-24199999D03*
X184609999Y-26739999D03*
X182069999Y-24199999D03*
X182069999Y-26739999D03*
X179529999Y-24199999D03*
X179529999Y-26739999D03*
X176989999Y-24199999D03*
D11*
X176989999Y-26739999D03*
%TD*%
D12*
%TO.C,Je1*%
X173450000Y-133900000D03*
D13*
X168369999Y-133899999D03*
%TD*%
D14*
%TO.C,A1*%
X83420000Y-48570000D03*
X84690000Y-124770000D03*
X116440000Y-100640000D03*
X130410000Y-124770000D03*
X131680000Y-49840000D03*
D15*
X129139999Y-53395999D03*
D16*
X131680000Y-53396000D03*
X129140000Y-55936000D03*
X131680000Y-55936000D03*
X129140000Y-58476000D03*
X131680000Y-58476000D03*
X129140000Y-61016000D03*
X131680000Y-61016000D03*
X129140000Y-63556000D03*
X131680000Y-63556000D03*
X129140000Y-66096000D03*
X131680000Y-66096000D03*
X129140000Y-68636000D03*
X131680000Y-68636000D03*
X129140000Y-71176000D03*
X131680000Y-71176000D03*
X129140000Y-73716000D03*
X131680000Y-73716000D03*
X129140000Y-76256000D03*
X131680000Y-76256000D03*
D15*
X83419999Y-62539999D03*
D16*
X85960000Y-62540000D03*
X83420000Y-65080000D03*
X85960000Y-65080000D03*
X83420000Y-67620000D03*
X85960000Y-67620000D03*
X83420000Y-70160000D03*
X85960000Y-70160000D03*
X83420000Y-72700000D03*
X85960000Y-72700000D03*
X83420000Y-75240000D03*
X85960000Y-75240000D03*
X83420000Y-77780000D03*
X85960000Y-77780000D03*
X83420000Y-80320000D03*
X85960000Y-80320000D03*
D15*
X83419999Y-85399999D03*
D16*
X85960000Y-85400000D03*
X83420000Y-87940000D03*
X85960000Y-87940000D03*
X83420000Y-90480000D03*
X85960000Y-90480000D03*
X83420000Y-93020000D03*
X85960000Y-93020000D03*
X83420000Y-95560000D03*
X85960000Y-95560000D03*
X83420000Y-98100000D03*
X85960000Y-98100000D03*
X83420000Y-100640000D03*
X85960000Y-100640000D03*
X83420000Y-103180000D03*
X85960000Y-103180000D03*
X83420000Y-105720000D03*
X85960000Y-105720000D03*
X83420000Y-108260000D03*
X85960000Y-108260000D03*
X83420000Y-110800000D03*
X85960000Y-110800000D03*
X83420000Y-113340000D03*
X85960000Y-113340000D03*
X83420000Y-115880000D03*
X85960000Y-115880000D03*
X83420000Y-118420000D03*
X85960000Y-118420000D03*
X83420000Y-120960000D03*
X85960000Y-120960000D03*
D15*
X129139999Y-80319999D03*
D16*
X131680000Y-80320000D03*
X129140000Y-82860000D03*
X131680000Y-82860000D03*
X129140000Y-85400000D03*
X131680000Y-85400000D03*
X129140000Y-87940000D03*
X131680000Y-87940000D03*
X129140000Y-90480000D03*
X131680000Y-90480000D03*
X129140000Y-93020000D03*
X131680000Y-93020000D03*
X129140000Y-95560000D03*
X131680000Y-95560000D03*
X129140000Y-98100000D03*
X131680000Y-98100000D03*
X129140000Y-100640000D03*
X131680000Y-100640000D03*
X129140000Y-103180000D03*
X131680000Y-103180000D03*
X129140000Y-105720000D03*
X131680000Y-105720000D03*
X129140000Y-108260000D03*
X131680000Y-108260000D03*
X129140000Y-110800000D03*
X131680000Y-110800000D03*
X129140000Y-113340000D03*
X131680000Y-113340000D03*
X129140000Y-115880000D03*
X131680000Y-115880000D03*
X129140000Y-118420000D03*
X131680000Y-118420000D03*
X129140000Y-120960000D03*
X131680000Y-120960000D03*
D15*
X75799999Y-52379999D03*
D16*
X78340000Y-52380000D03*
X75800000Y-54920000D03*
X78340000Y-54920000D03*
X75800000Y-57460000D03*
X78340000Y-57460000D03*
X75800000Y-60000000D03*
X78340000Y-60000000D03*
X75800000Y-62540000D03*
X78340000Y-62540000D03*
X75800000Y-65080000D03*
X78340000Y-65080000D03*
X75800000Y-67620000D03*
X78340000Y-67620000D03*
X75800000Y-70160000D03*
X78340000Y-70160000D03*
X75800000Y-72700000D03*
X78340000Y-72700000D03*
X75800000Y-75240000D03*
X78340000Y-75240000D03*
X75800000Y-77780000D03*
X78340000Y-77780000D03*
X75800000Y-80320000D03*
X78340000Y-80320000D03*
X75800000Y-82860000D03*
X78340000Y-82860000D03*
X75800000Y-85400000D03*
X78340000Y-85400000D03*
X75800000Y-87940000D03*
X78340000Y-87940000D03*
X75800000Y-90480000D03*
X78340000Y-90480000D03*
X75800000Y-93020000D03*
X78340000Y-93020000D03*
X75800000Y-95560000D03*
X78340000Y-95560000D03*
X75800000Y-98100000D03*
X78340000Y-98100000D03*
X75800000Y-100640000D03*
X78340000Y-100640000D03*
X75800000Y-103180000D03*
X78340000Y-103180000D03*
X75800000Y-105720000D03*
X78340000Y-105720000D03*
X75800000Y-108260000D03*
X78340000Y-108260000D03*
X75800000Y-110800000D03*
X78340000Y-110800000D03*
X75800000Y-113340000D03*
X78340000Y-113340000D03*
X75800000Y-115880000D03*
X78340000Y-115880000D03*
X75800000Y-118420000D03*
X78340000Y-118420000D03*
X75800000Y-120960000D03*
X78340000Y-120960000D03*
X75800000Y-123500000D03*
X78340000Y-123500000D03*
X75800000Y-126040000D03*
X78340000Y-126040000D03*
X75800000Y-128580000D03*
X78340000Y-128580000D03*
X75800000Y-131120000D03*
X78340000Y-131120000D03*
X75800000Y-133660000D03*
X78340000Y-133660000D03*
X75800000Y-136200000D03*
X78340000Y-136200000D03*
X75800000Y-138740000D03*
X78340000Y-138740000D03*
X75800000Y-141280000D03*
X78340000Y-141280000D03*
D15*
X136759999Y-52399999D03*
D16*
X139300000Y-52400000D03*
X136760000Y-54940000D03*
X139300000Y-54940000D03*
X136760000Y-57480000D03*
X139300000Y-57480000D03*
X136760000Y-60020000D03*
X139300000Y-60020000D03*
X136760000Y-62560000D03*
X139300000Y-62560000D03*
X136760000Y-65100000D03*
X139300000Y-65100000D03*
X136760000Y-67640000D03*
X139300000Y-67640000D03*
X136760000Y-70180000D03*
X139300000Y-70180000D03*
X136760000Y-72720000D03*
X139300000Y-72720000D03*
X136760000Y-75260000D03*
X139300000Y-75260000D03*
X136760000Y-77800000D03*
X139300000Y-77800000D03*
X136760000Y-80340000D03*
X139300000Y-80340000D03*
X136760000Y-82880000D03*
X139300000Y-82880000D03*
X136760000Y-85420000D03*
X139300000Y-85420000D03*
X136760000Y-87960000D03*
X139300000Y-87960000D03*
X136760000Y-90500000D03*
X139300000Y-90500000D03*
X136760000Y-93040000D03*
X139300000Y-93040000D03*
X136760000Y-95580000D03*
X139300000Y-95580000D03*
X136760000Y-98120000D03*
X139300000Y-98120000D03*
X136760000Y-100660000D03*
X139300000Y-100660000D03*
X136760000Y-103200000D03*
X139300000Y-103200000D03*
X136760000Y-105740000D03*
X139300000Y-105740000D03*
X136760000Y-108280000D03*
X139300000Y-108280000D03*
X136760000Y-110820000D03*
X139300000Y-110820000D03*
X136760000Y-113360000D03*
X139300000Y-113360000D03*
X136760000Y-115900000D03*
X139300000Y-115900000D03*
X136760000Y-118440000D03*
X139300000Y-118440000D03*
X136760000Y-120980000D03*
X139300000Y-120980000D03*
X136760000Y-123520000D03*
X139300000Y-123520000D03*
X136760000Y-126060000D03*
X139300000Y-126060000D03*
X136760000Y-128600000D03*
X139300000Y-128600000D03*
X136760000Y-131140000D03*
X139300000Y-131140000D03*
X136760000Y-133680000D03*
X139300000Y-133680000D03*
X136760000Y-136220000D03*
X139300000Y-136220000D03*
X136760000Y-138760000D03*
X139300000Y-138760000D03*
X136760000Y-141300000D03*
X139300000Y-141300000D03*
%TD*%
D14*
%TO.C,A2*%
X149380000Y-48560000D03*
X148110000Y-124760000D03*
X116360000Y-100630000D03*
X102390000Y-124760000D03*
X101120000Y-49830000D03*
D15*
X103659999Y-53385999D03*
D16*
X101120000Y-53386000D03*
X103660000Y-55926000D03*
X101120000Y-55926000D03*
X103660000Y-58466000D03*
X101120000Y-58466000D03*
X103660000Y-61006000D03*
X101120000Y-61006000D03*
X103660000Y-63546000D03*
X101120000Y-63546000D03*
X103660000Y-66086000D03*
X101120000Y-66086000D03*
X103660000Y-68626000D03*
X101120000Y-68626000D03*
X103660000Y-71166000D03*
X101120000Y-71166000D03*
X103660000Y-73706000D03*
X101120000Y-73706000D03*
X103660000Y-76246000D03*
X101120000Y-76246000D03*
D15*
X149379999Y-62529999D03*
D16*
X146840000Y-62530000D03*
X149380000Y-65070000D03*
X146840000Y-65070000D03*
X149380000Y-67610000D03*
X146840000Y-67610000D03*
X149380000Y-70150000D03*
X146840000Y-70150000D03*
X149380000Y-72690000D03*
X146840000Y-72690000D03*
X149380000Y-75230000D03*
X146840000Y-75230000D03*
X149380000Y-77770000D03*
X146840000Y-77770000D03*
X149380000Y-80310000D03*
X146840000Y-80310000D03*
D15*
X149379999Y-85389999D03*
D16*
X146840000Y-85390000D03*
X149380000Y-87930000D03*
X146840000Y-87930000D03*
X149380000Y-90470000D03*
X146840000Y-90470000D03*
X149380000Y-93010000D03*
X146840000Y-93010000D03*
X149380000Y-95550000D03*
X146840000Y-95550000D03*
X149380000Y-98090000D03*
X146840000Y-98090000D03*
X149380000Y-100630000D03*
X146840000Y-100630000D03*
X149380000Y-103170000D03*
X146840000Y-103170000D03*
X149380000Y-105710000D03*
X146840000Y-105710000D03*
X149380000Y-108250000D03*
X146840000Y-108250000D03*
X149380000Y-110790000D03*
X146840000Y-110790000D03*
X149380000Y-113330000D03*
X146840000Y-113330000D03*
X149380000Y-115870000D03*
X146840000Y-115870000D03*
X149380000Y-118410000D03*
X146840000Y-118410000D03*
X149380000Y-120950000D03*
X146840000Y-120950000D03*
D15*
X103659999Y-80309999D03*
D16*
X101120000Y-80310000D03*
X103660000Y-82850000D03*
X101120000Y-82850000D03*
X103660000Y-85390000D03*
X101120000Y-85390000D03*
X103660000Y-87930000D03*
X101120000Y-87930000D03*
X103660000Y-90470000D03*
X101120000Y-90470000D03*
X103660000Y-93010000D03*
X101120000Y-93010000D03*
X103660000Y-95550000D03*
X101120000Y-95550000D03*
X103660000Y-98090000D03*
X101120000Y-98090000D03*
X103660000Y-100630000D03*
X101120000Y-100630000D03*
X103660000Y-103170000D03*
X101120000Y-103170000D03*
X103660000Y-105710000D03*
X101120000Y-105710000D03*
X103660000Y-108250000D03*
X101120000Y-108250000D03*
X103660000Y-110790000D03*
X101120000Y-110790000D03*
X103660000Y-113330000D03*
X101120000Y-113330000D03*
X103660000Y-115870000D03*
X101120000Y-115870000D03*
X103660000Y-118410000D03*
X101120000Y-118410000D03*
X103660000Y-120950000D03*
X101120000Y-120950000D03*
D15*
X156999999Y-52369999D03*
D16*
X154460000Y-52370000D03*
X157000000Y-54910000D03*
X154460000Y-54910000D03*
X157000000Y-57450000D03*
X154460000Y-57450000D03*
X157000000Y-59990000D03*
X154460000Y-59990000D03*
X157000000Y-62530000D03*
X154460000Y-62530000D03*
X157000000Y-65070000D03*
X154460000Y-65070000D03*
X157000000Y-67610000D03*
X154460000Y-67610000D03*
X157000000Y-70150000D03*
X154460000Y-70150000D03*
X157000000Y-72690000D03*
X154460000Y-72690000D03*
X157000000Y-75230000D03*
X154460000Y-75230000D03*
X157000000Y-77770000D03*
X154460000Y-77770000D03*
X157000000Y-80310000D03*
X154460000Y-80310000D03*
X157000000Y-82850000D03*
X154460000Y-82850000D03*
X157000000Y-85390000D03*
X154460000Y-85390000D03*
X157000000Y-87930000D03*
X154460000Y-87930000D03*
X157000000Y-90470000D03*
X154460000Y-90470000D03*
X157000000Y-93010000D03*
X154460000Y-93010000D03*
X157000000Y-95550000D03*
X154460000Y-95550000D03*
X157000000Y-98090000D03*
X154460000Y-98090000D03*
X157000000Y-100630000D03*
X154460000Y-100630000D03*
X157000000Y-103170000D03*
X154460000Y-103170000D03*
X157000000Y-105710000D03*
X154460000Y-105710000D03*
X157000000Y-108250000D03*
X154460000Y-108250000D03*
X157000000Y-110790000D03*
X154460000Y-110790000D03*
X157000000Y-113330000D03*
X154460000Y-113330000D03*
X157000000Y-115870000D03*
X154460000Y-115870000D03*
X157000000Y-118410000D03*
X154460000Y-118410000D03*
X157000000Y-120950000D03*
X154460000Y-120950000D03*
X157000000Y-123490000D03*
X154460000Y-123490000D03*
X157000000Y-126030000D03*
X154460000Y-126030000D03*
X157000000Y-128570000D03*
X154460000Y-128570000D03*
X157000000Y-131110000D03*
X154460000Y-131110000D03*
X157000000Y-133650000D03*
X154460000Y-133650000D03*
X157000000Y-136190000D03*
X154460000Y-136190000D03*
X157000000Y-138730000D03*
X154460000Y-138730000D03*
X157000000Y-141270000D03*
X154460000Y-141270000D03*
D15*
X96039999Y-52389999D03*
D16*
X93500000Y-52390000D03*
X96040000Y-54930000D03*
X93500000Y-54930000D03*
X96040000Y-57470000D03*
X93500000Y-57470000D03*
X96040000Y-60010000D03*
X93500000Y-60010000D03*
X96040000Y-62550000D03*
X93500000Y-62550000D03*
X96040000Y-65090000D03*
X93500000Y-65090000D03*
X96040000Y-67630000D03*
X93500000Y-67630000D03*
X96040000Y-70170000D03*
X93500000Y-70170000D03*
X96040000Y-72710000D03*
X93500000Y-72710000D03*
X96040000Y-75250000D03*
X93500000Y-75250000D03*
X96040000Y-77790000D03*
X93500000Y-77790000D03*
X96040000Y-80330000D03*
X93500000Y-80330000D03*
X96040000Y-82870000D03*
X93500000Y-82870000D03*
X96040000Y-85410000D03*
X93500000Y-85410000D03*
X96040000Y-87950000D03*
X93500000Y-87950000D03*
X96040000Y-90490000D03*
X93500000Y-90490000D03*
X96040000Y-93030000D03*
X93500000Y-93030000D03*
X96040000Y-95570000D03*
X93500000Y-95570000D03*
X96040000Y-98110000D03*
X93500000Y-98110000D03*
X96040000Y-100650000D03*
X93500000Y-100650000D03*
X96040000Y-103190000D03*
X93500000Y-103190000D03*
X96040000Y-105730000D03*
X93500000Y-105730000D03*
X96040000Y-108270000D03*
X93500000Y-108270000D03*
X96040000Y-110810000D03*
X93500000Y-110810000D03*
X96040000Y-113350000D03*
X93500000Y-113350000D03*
X96040000Y-115890000D03*
X93500000Y-115890000D03*
X96040000Y-118430000D03*
X93500000Y-118430000D03*
X96040000Y-120970000D03*
X93500000Y-120970000D03*
X96040000Y-123510000D03*
X93500000Y-123510000D03*
X96040000Y-126050000D03*
X93500000Y-126050000D03*
X96040000Y-128590000D03*
X93500000Y-128590000D03*
X96040000Y-131130000D03*
X93500000Y-131130000D03*
X96040000Y-133670000D03*
X93500000Y-133670000D03*
X96040000Y-136210000D03*
X93500000Y-136210000D03*
X96040000Y-138750000D03*
X93500000Y-138750000D03*
X96040000Y-141290000D03*
X93500000Y-141290000D03*
%TD*%
M02*
