%TF.GenerationSoftware,KiCad,Pcbnew,(7.0.0)*%
%TF.CreationDate,2023-03-03T14:11:26-05:00*%
%TF.ProjectId,new-dev-board,6e65772d-6465-4762-9d62-6f6172642e6b,rev?*%
%TF.SameCoordinates,Original*%
%TF.FileFunction,Legend,Top*%
%TF.FilePolarity,Positive*%
%FSLAX46Y46*%
G04 Gerber Fmt 4.6, Leading zero omitted, Abs format (unit mm)*
G04 Created by KiCad (PCBNEW (7.0.0)) date 2023-03-03 14:11:26*
%MOMM*%
%LPD*%
G01*
G04 APERTURE LIST*
%ADD10C,0.100000*%
%ADD11C,0.150000*%
%ADD12C,0.120000*%
%ADD13C,0.127000*%
%ADD14C,0.200000*%
G04 APERTURE END LIST*
D10*
%TO.C,J1*%
X200916666Y-34467380D02*
X200916666Y-35181666D01*
X200916666Y-35181666D02*
X200869047Y-35324523D01*
X200869047Y-35324523D02*
X200773809Y-35419761D01*
X200773809Y-35419761D02*
X200630952Y-35467380D01*
X200630952Y-35467380D02*
X200535714Y-35467380D01*
X201916666Y-35467380D02*
X201345238Y-35467380D01*
X201630952Y-35467380D02*
X201630952Y-34467380D01*
X201630952Y-34467380D02*
X201535714Y-34610238D01*
X201535714Y-34610238D02*
X201440476Y-34705476D01*
X201440476Y-34705476D02*
X201345238Y-34753095D01*
D11*
%TO.C,Je1*%
X170148095Y-127007380D02*
X170148095Y-127721666D01*
X170148095Y-127721666D02*
X170100476Y-127864523D01*
X170100476Y-127864523D02*
X170005238Y-127959761D01*
X170005238Y-127959761D02*
X169862381Y-128007380D01*
X169862381Y-128007380D02*
X169767143Y-128007380D01*
X171005238Y-127959761D02*
X170910000Y-128007380D01*
X170910000Y-128007380D02*
X170719524Y-128007380D01*
X170719524Y-128007380D02*
X170624286Y-127959761D01*
X170624286Y-127959761D02*
X170576667Y-127864523D01*
X170576667Y-127864523D02*
X170576667Y-127483571D01*
X170576667Y-127483571D02*
X170624286Y-127388333D01*
X170624286Y-127388333D02*
X170719524Y-127340714D01*
X170719524Y-127340714D02*
X170910000Y-127340714D01*
X170910000Y-127340714D02*
X171005238Y-127388333D01*
X171005238Y-127388333D02*
X171052857Y-127483571D01*
X171052857Y-127483571D02*
X171052857Y-127578809D01*
X171052857Y-127578809D02*
X170576667Y-127674047D01*
X172005238Y-128007380D02*
X171433810Y-128007380D01*
X171719524Y-128007380D02*
X171719524Y-127007380D01*
X171719524Y-127007380D02*
X171624286Y-127150238D01*
X171624286Y-127150238D02*
X171529048Y-127245476D01*
X171529048Y-127245476D02*
X171433810Y-127293095D01*
%TO.C,A1*%
X75650000Y-23814333D02*
X76316667Y-23814333D01*
X75516667Y-24214333D02*
X75983334Y-22814333D01*
X75983334Y-22814333D02*
X76450000Y-24214333D01*
X77650000Y-24214333D02*
X76850000Y-24214333D01*
X77250000Y-24214333D02*
X77250000Y-22814333D01*
X77250000Y-22814333D02*
X77116667Y-23014333D01*
X77116667Y-23014333D02*
X76983334Y-23147666D01*
X76983334Y-23147666D02*
X76850000Y-23214333D01*
%TO.C,A2*%
X161450000Y-23114333D02*
X162116667Y-23114333D01*
X161316667Y-23514333D02*
X161783334Y-22114333D01*
X161783334Y-22114333D02*
X162250000Y-23514333D01*
X162650000Y-22247666D02*
X162716667Y-22181000D01*
X162716667Y-22181000D02*
X162850000Y-22114333D01*
X162850000Y-22114333D02*
X163183334Y-22114333D01*
X163183334Y-22114333D02*
X163316667Y-22181000D01*
X163316667Y-22181000D02*
X163383334Y-22247666D01*
X163383334Y-22247666D02*
X163450000Y-22381000D01*
X163450000Y-22381000D02*
X163450000Y-22514333D01*
X163450000Y-22514333D02*
X163383334Y-22714333D01*
X163383334Y-22714333D02*
X162583334Y-23514333D01*
X162583334Y-23514333D02*
X163450000Y-23514333D01*
D10*
%TO.C,J1*%
X168750000Y-22100000D02*
X233750000Y-22100000D01*
X233750000Y-22100000D02*
X233750000Y-78100000D01*
X233750000Y-78100000D02*
X168750000Y-78100000D01*
X168750000Y-78100000D02*
X168750000Y-22100000D01*
D12*
X226580000Y-28070000D02*
X226580000Y-22870000D01*
X178260000Y-28070000D02*
X226580000Y-28070000D01*
X178260000Y-28070000D02*
X178260000Y-25470000D01*
X178260000Y-25470000D02*
X175660000Y-25470000D01*
X176990000Y-28070000D02*
X175660000Y-28070000D01*
X175660000Y-28070000D02*
X175660000Y-26740000D01*
X175660000Y-25470000D02*
X175660000Y-22870000D01*
X175660000Y-22870000D02*
X226580000Y-22870000D01*
%TO.C,Je1*%
X175130000Y-133900000D02*
G75*
G03*
X175130000Y-133900000I-1680000J0D01*
G01*
X169905000Y-134584000D02*
G75*
G03*
X169905426Y-133216958I-1535000J684000D01*
G01*
X168370000Y-135579999D02*
G75*
G03*
X169053318Y-135434755I0J1679999D01*
G01*
X167686000Y-135434999D02*
G75*
G03*
X168398805Y-135580252I683999J1535000D01*
G01*
X169053999Y-132365001D02*
G75*
G03*
X167686958Y-132364574I-684000J-1534992D01*
G01*
X166835001Y-133216001D02*
G75*
G03*
X166834574Y-134583042I1534992J-684000D01*
G01*
X176050000Y-128639000D02*
X176050000Y-138560000D01*
X174725000Y-132831000D02*
X174678000Y-132877000D01*
X174520000Y-132625000D02*
X174485000Y-132661000D01*
X172416000Y-135139000D02*
X172381000Y-135174000D01*
X172223000Y-134923000D02*
X172176000Y-134969000D01*
X165770000Y-138560000D02*
X176050000Y-138560000D01*
X165770000Y-138000000D02*
X176050000Y-138000000D01*
X165770000Y-136500000D02*
X176050000Y-136500000D01*
X165770000Y-131599000D02*
X176050000Y-131599000D01*
X165770000Y-128639000D02*
X176050000Y-128639000D01*
X165770000Y-128639000D02*
X165770000Y-138560000D01*
X165530000Y-138800000D02*
X166030000Y-138800000D01*
X165530000Y-138060000D02*
X165530000Y-138800000D01*
D13*
%TO.C,A1*%
X72550000Y-22640000D02*
X72550000Y-45200000D01*
X72550000Y-45200000D02*
X88042800Y-45200000D01*
X72550000Y-46140000D02*
X72550000Y-151980000D01*
X72550000Y-46140000D02*
X88042800Y-46140000D01*
X74550000Y-153980000D02*
X140550000Y-153980000D01*
X91548000Y-45200000D02*
X110547200Y-45200000D01*
X91548000Y-46140000D02*
X110547200Y-46140000D01*
X115170000Y-45200000D02*
X122485200Y-45200000D01*
X115170000Y-46140000D02*
X122485200Y-46140000D01*
X126549200Y-45200000D02*
X142550000Y-45200000D01*
X126549200Y-46140000D02*
X142550000Y-46140000D01*
X140550000Y-20640000D02*
X74550000Y-20640000D01*
X142550000Y-45200000D02*
X142550000Y-22640000D01*
X142550000Y-151980000D02*
X142550000Y-46140000D01*
X74550000Y-20640000D02*
G75*
G03*
X72550000Y-22640000I-1J-1999999D01*
G01*
X72550000Y-151980000D02*
G75*
G03*
X74550000Y-153980000I1999999J-1D01*
G01*
X88042800Y-46140000D02*
G75*
G03*
X88042801Y-45200000I-7461J470000D01*
G01*
X91548000Y-45200000D02*
G75*
G03*
X91547999Y-46140000I7461J-470000D01*
G01*
X110547200Y-46140000D02*
G75*
G03*
X110547201Y-45200000I-7460J470000D01*
G01*
X115170000Y-45200000D02*
G75*
G03*
X115169999Y-46140000I7460J-470000D01*
G01*
X122485200Y-46140000D02*
G75*
G03*
X122485201Y-45200000I-7460J470000D01*
G01*
X126549200Y-45200000D02*
G75*
G03*
X126549199Y-46140000I7460J-470000D01*
G01*
X142550000Y-22640000D02*
G75*
G03*
X140550000Y-20640000I-2000000J0D01*
G01*
X140550000Y-153980000D02*
G75*
G03*
X142550000Y-151980000I0J2000000D01*
G01*
D14*
X74150000Y-52380000D02*
G75*
G03*
X74150000Y-52380000I-100000J0D01*
G01*
X81770000Y-62540000D02*
G75*
G03*
X81770000Y-62540000I-100000J0D01*
G01*
X81770000Y-85400000D02*
G75*
G03*
X81770000Y-85400000I-100000J0D01*
G01*
X127490000Y-53396000D02*
G75*
G03*
X127490000Y-53396000I-100000J0D01*
G01*
X127490000Y-80320000D02*
G75*
G03*
X127490000Y-80320000I-100000J0D01*
G01*
X135110000Y-52405400D02*
G75*
G03*
X135110000Y-52405400I-100000J0D01*
G01*
%TD*%
M02*
