%TF.GenerationSoftware,KiCad,Pcbnew,(7.0.0)*%
%TF.CreationDate,2023-03-03T04:22:33-05:00*%
%TF.ProjectId,new-dev-board,6e65772d-6465-4762-9d62-6f6172642e6b,rev?*%
%TF.SameCoordinates,Original*%
%TF.FileFunction,Soldermask,Bot*%
%TF.FilePolarity,Negative*%
%FSLAX46Y46*%
G04 Gerber Fmt 4.6, Leading zero omitted, Abs format (unit mm)*
G04 Created by KiCad (PCBNEW (7.0.0)) date 2023-03-03 04:22:33*
%MOMM*%
%LPD*%
G01*
G04 APERTURE LIST*
%ADD10R,1.700000X1.700000*%
%ADD11O,1.700000X1.700000*%
%ADD12R,2.600000X2.600000*%
%ADD13C,2.600000*%
%ADD14C,3.200000*%
%ADD15R,1.530000X1.530000*%
%ADD16C,1.530000*%
G04 APERTURE END LIST*
D10*
%TO.C,J1*%
X127139999Y-27439999D03*
D11*
X127139999Y-24899999D03*
X129679999Y-27439999D03*
X129679999Y-24899999D03*
X132219999Y-27439999D03*
X132219999Y-24899999D03*
X134759999Y-27439999D03*
X134759999Y-24899999D03*
X137299999Y-27439999D03*
X137299999Y-24899999D03*
X139839999Y-27439999D03*
X139839999Y-24899999D03*
X142379999Y-27439999D03*
X142379999Y-24899999D03*
X144919999Y-27439999D03*
X144919999Y-24899999D03*
X147459999Y-27439999D03*
X147459999Y-24899999D03*
X149999999Y-27439999D03*
X149999999Y-24899999D03*
X152539999Y-27439999D03*
X152539999Y-24899999D03*
X155079999Y-27439999D03*
X155079999Y-24899999D03*
X157619999Y-27439999D03*
X157619999Y-24899999D03*
X160159999Y-27439999D03*
X160159999Y-24899999D03*
X162699999Y-27439999D03*
X162699999Y-24899999D03*
X165239999Y-27439999D03*
X165239999Y-24899999D03*
X167779999Y-27439999D03*
X167779999Y-24899999D03*
X170319999Y-27439999D03*
X170319999Y-24899999D03*
X172859999Y-27439999D03*
X172859999Y-24899999D03*
X175399999Y-27439999D03*
X175399999Y-24899999D03*
%TD*%
D12*
%TO.C,Je1*%
X118519999Y-134599999D03*
D13*
X123600000Y-134600000D03*
%TD*%
D14*
%TO.C,A1*%
X33570000Y-49270000D03*
X34840000Y-125470000D03*
X66590000Y-101340000D03*
X80560000Y-125470000D03*
X81830000Y-50540000D03*
D15*
X79289999Y-54095999D03*
D16*
X81830000Y-54096000D03*
X79290000Y-56636000D03*
X81830000Y-56636000D03*
X79290000Y-59176000D03*
X81830000Y-59176000D03*
X79290000Y-61716000D03*
X81830000Y-61716000D03*
X79290000Y-64256000D03*
X81830000Y-64256000D03*
X79290000Y-66796000D03*
X81830000Y-66796000D03*
X79290000Y-69336000D03*
X81830000Y-69336000D03*
X79290000Y-71876000D03*
X81830000Y-71876000D03*
X79290000Y-74416000D03*
X81830000Y-74416000D03*
X79290000Y-76956000D03*
X81830000Y-76956000D03*
D15*
X33569999Y-63239999D03*
D16*
X36110000Y-63240000D03*
X33570000Y-65780000D03*
X36110000Y-65780000D03*
X33570000Y-68320000D03*
X36110000Y-68320000D03*
X33570000Y-70860000D03*
X36110000Y-70860000D03*
X33570000Y-73400000D03*
X36110000Y-73400000D03*
X33570000Y-75940000D03*
X36110000Y-75940000D03*
X33570000Y-78480000D03*
X36110000Y-78480000D03*
X33570000Y-81020000D03*
X36110000Y-81020000D03*
D15*
X33569999Y-86099999D03*
D16*
X36110000Y-86100000D03*
X33570000Y-88640000D03*
X36110000Y-88640000D03*
X33570000Y-91180000D03*
X36110000Y-91180000D03*
X33570000Y-93720000D03*
X36110000Y-93720000D03*
X33570000Y-96260000D03*
X36110000Y-96260000D03*
X33570000Y-98800000D03*
X36110000Y-98800000D03*
X33570000Y-101340000D03*
X36110000Y-101340000D03*
X33570000Y-103880000D03*
X36110000Y-103880000D03*
X33570000Y-106420000D03*
X36110000Y-106420000D03*
X33570000Y-108960000D03*
X36110000Y-108960000D03*
X33570000Y-111500000D03*
X36110000Y-111500000D03*
X33570000Y-114040000D03*
X36110000Y-114040000D03*
X33570000Y-116580000D03*
X36110000Y-116580000D03*
X33570000Y-119120000D03*
X36110000Y-119120000D03*
X33570000Y-121660000D03*
X36110000Y-121660000D03*
D15*
X79289999Y-81019999D03*
D16*
X81830000Y-81020000D03*
X79290000Y-83560000D03*
X81830000Y-83560000D03*
X79290000Y-86100000D03*
X81830000Y-86100000D03*
X79290000Y-88640000D03*
X81830000Y-88640000D03*
X79290000Y-91180000D03*
X81830000Y-91180000D03*
X79290000Y-93720000D03*
X81830000Y-93720000D03*
X79290000Y-96260000D03*
X81830000Y-96260000D03*
X79290000Y-98800000D03*
X81830000Y-98800000D03*
X79290000Y-101340000D03*
X81830000Y-101340000D03*
X79290000Y-103880000D03*
X81830000Y-103880000D03*
X79290000Y-106420000D03*
X81830000Y-106420000D03*
X79290000Y-108960000D03*
X81830000Y-108960000D03*
X79290000Y-111500000D03*
X81830000Y-111500000D03*
X79290000Y-114040000D03*
X81830000Y-114040000D03*
X79290000Y-116580000D03*
X81830000Y-116580000D03*
X79290000Y-119120000D03*
X81830000Y-119120000D03*
X79290000Y-121660000D03*
X81830000Y-121660000D03*
D15*
X25949999Y-53079999D03*
D16*
X28490000Y-53080000D03*
X25950000Y-55620000D03*
X28490000Y-55620000D03*
X25950000Y-58160000D03*
X28490000Y-58160000D03*
X25950000Y-60700000D03*
X28490000Y-60700000D03*
X25950000Y-63240000D03*
X28490000Y-63240000D03*
X25950000Y-65780000D03*
X28490000Y-65780000D03*
X25950000Y-68320000D03*
X28490000Y-68320000D03*
X25950000Y-70860000D03*
X28490000Y-70860000D03*
X25950000Y-73400000D03*
X28490000Y-73400000D03*
X25950000Y-75940000D03*
X28490000Y-75940000D03*
X25950000Y-78480000D03*
X28490000Y-78480000D03*
X25950000Y-81020000D03*
X28490000Y-81020000D03*
X25950000Y-83560000D03*
X28490000Y-83560000D03*
X25950000Y-86100000D03*
X28490000Y-86100000D03*
X25950000Y-88640000D03*
X28490000Y-88640000D03*
X25950000Y-91180000D03*
X28490000Y-91180000D03*
X25950000Y-93720000D03*
X28490000Y-93720000D03*
X25950000Y-96260000D03*
X28490000Y-96260000D03*
X25950000Y-98800000D03*
X28490000Y-98800000D03*
X25950000Y-101340000D03*
X28490000Y-101340000D03*
X25950000Y-103880000D03*
X28490000Y-103880000D03*
X25950000Y-106420000D03*
X28490000Y-106420000D03*
X25950000Y-108960000D03*
X28490000Y-108960000D03*
X25950000Y-111500000D03*
X28490000Y-111500000D03*
X25950000Y-114040000D03*
X28490000Y-114040000D03*
X25950000Y-116580000D03*
X28490000Y-116580000D03*
X25950000Y-119120000D03*
X28490000Y-119120000D03*
X25950000Y-121660000D03*
X28490000Y-121660000D03*
X25950000Y-124200000D03*
X28490000Y-124200000D03*
X25950000Y-126740000D03*
X28490000Y-126740000D03*
X25950000Y-129280000D03*
X28490000Y-129280000D03*
X25950000Y-131820000D03*
X28490000Y-131820000D03*
X25950000Y-134360000D03*
X28490000Y-134360000D03*
X25950000Y-136900000D03*
X28490000Y-136900000D03*
X25950000Y-139440000D03*
X28490000Y-139440000D03*
X25950000Y-141980000D03*
X28490000Y-141980000D03*
D15*
X86909999Y-53099999D03*
D16*
X89450000Y-53100000D03*
X86910000Y-55640000D03*
X89450000Y-55640000D03*
X86910000Y-58180000D03*
X89450000Y-58180000D03*
X86910000Y-60720000D03*
X89450000Y-60720000D03*
X86910000Y-63260000D03*
X89450000Y-63260000D03*
X86910000Y-65800000D03*
X89450000Y-65800000D03*
X86910000Y-68340000D03*
X89450000Y-68340000D03*
X86910000Y-70880000D03*
X89450000Y-70880000D03*
X86910000Y-73420000D03*
X89450000Y-73420000D03*
X86910000Y-75960000D03*
X89450000Y-75960000D03*
X86910000Y-78500000D03*
X89450000Y-78500000D03*
X86910000Y-81040000D03*
X89450000Y-81040000D03*
X86910000Y-83580000D03*
X89450000Y-83580000D03*
X86910000Y-86120000D03*
X89450000Y-86120000D03*
X86910000Y-88660000D03*
X89450000Y-88660000D03*
X86910000Y-91200000D03*
X89450000Y-91200000D03*
X86910000Y-93740000D03*
X89450000Y-93740000D03*
X86910000Y-96280000D03*
X89450000Y-96280000D03*
X86910000Y-98820000D03*
X89450000Y-98820000D03*
X86910000Y-101360000D03*
X89450000Y-101360000D03*
X86910000Y-103900000D03*
X89450000Y-103900000D03*
X86910000Y-106440000D03*
X89450000Y-106440000D03*
X86910000Y-108980000D03*
X89450000Y-108980000D03*
X86910000Y-111520000D03*
X89450000Y-111520000D03*
X86910000Y-114060000D03*
X89450000Y-114060000D03*
X86910000Y-116600000D03*
X89450000Y-116600000D03*
X86910000Y-119140000D03*
X89450000Y-119140000D03*
X86910000Y-121680000D03*
X89450000Y-121680000D03*
X86910000Y-124220000D03*
X89450000Y-124220000D03*
X86910000Y-126760000D03*
X89450000Y-126760000D03*
X86910000Y-129300000D03*
X89450000Y-129300000D03*
X86910000Y-131840000D03*
X89450000Y-131840000D03*
X86910000Y-134380000D03*
X89450000Y-134380000D03*
X86910000Y-136920000D03*
X89450000Y-136920000D03*
X86910000Y-139460000D03*
X89450000Y-139460000D03*
X86910000Y-142000000D03*
X89450000Y-142000000D03*
%TD*%
D14*
%TO.C,A2*%
X99530000Y-49260000D03*
X98260000Y-125460000D03*
X66510000Y-101330000D03*
X52540000Y-125460000D03*
X51270000Y-50530000D03*
D15*
X53809999Y-54085999D03*
D16*
X51270000Y-54086000D03*
X53810000Y-56626000D03*
X51270000Y-56626000D03*
X53810000Y-59166000D03*
X51270000Y-59166000D03*
X53810000Y-61706000D03*
X51270000Y-61706000D03*
X53810000Y-64246000D03*
X51270000Y-64246000D03*
X53810000Y-66786000D03*
X51270000Y-66786000D03*
X53810000Y-69326000D03*
X51270000Y-69326000D03*
X53810000Y-71866000D03*
X51270000Y-71866000D03*
X53810000Y-74406000D03*
X51270000Y-74406000D03*
X53810000Y-76946000D03*
X51270000Y-76946000D03*
D15*
X99529999Y-63229999D03*
D16*
X96990000Y-63230000D03*
X99530000Y-65770000D03*
X96990000Y-65770000D03*
X99530000Y-68310000D03*
X96990000Y-68310000D03*
X99530000Y-70850000D03*
X96990000Y-70850000D03*
X99530000Y-73390000D03*
X96990000Y-73390000D03*
X99530000Y-75930000D03*
X96990000Y-75930000D03*
X99530000Y-78470000D03*
X96990000Y-78470000D03*
X99530000Y-81010000D03*
X96990000Y-81010000D03*
D15*
X99529999Y-86089999D03*
D16*
X96990000Y-86090000D03*
X99530000Y-88630000D03*
X96990000Y-88630000D03*
X99530000Y-91170000D03*
X96990000Y-91170000D03*
X99530000Y-93710000D03*
X96990000Y-93710000D03*
X99530000Y-96250000D03*
X96990000Y-96250000D03*
X99530000Y-98790000D03*
X96990000Y-98790000D03*
X99530000Y-101330000D03*
X96990000Y-101330000D03*
X99530000Y-103870000D03*
X96990000Y-103870000D03*
X99530000Y-106410000D03*
X96990000Y-106410000D03*
X99530000Y-108950000D03*
X96990000Y-108950000D03*
X99530000Y-111490000D03*
X96990000Y-111490000D03*
X99530000Y-114030000D03*
X96990000Y-114030000D03*
X99530000Y-116570000D03*
X96990000Y-116570000D03*
X99530000Y-119110000D03*
X96990000Y-119110000D03*
X99530000Y-121650000D03*
X96990000Y-121650000D03*
D15*
X53809999Y-81009999D03*
D16*
X51270000Y-81010000D03*
X53810000Y-83550000D03*
X51270000Y-83550000D03*
X53810000Y-86090000D03*
X51270000Y-86090000D03*
X53810000Y-88630000D03*
X51270000Y-88630000D03*
X53810000Y-91170000D03*
X51270000Y-91170000D03*
X53810000Y-93710000D03*
X51270000Y-93710000D03*
X53810000Y-96250000D03*
X51270000Y-96250000D03*
X53810000Y-98790000D03*
X51270000Y-98790000D03*
X53810000Y-101330000D03*
X51270000Y-101330000D03*
X53810000Y-103870000D03*
X51270000Y-103870000D03*
X53810000Y-106410000D03*
X51270000Y-106410000D03*
X53810000Y-108950000D03*
X51270000Y-108950000D03*
X53810000Y-111490000D03*
X51270000Y-111490000D03*
X53810000Y-114030000D03*
X51270000Y-114030000D03*
X53810000Y-116570000D03*
X51270000Y-116570000D03*
X53810000Y-119110000D03*
X51270000Y-119110000D03*
X53810000Y-121650000D03*
X51270000Y-121650000D03*
D15*
X107149999Y-53069999D03*
D16*
X104610000Y-53070000D03*
X107150000Y-55610000D03*
X104610000Y-55610000D03*
X107150000Y-58150000D03*
X104610000Y-58150000D03*
X107150000Y-60690000D03*
X104610000Y-60690000D03*
X107150000Y-63230000D03*
X104610000Y-63230000D03*
X107150000Y-65770000D03*
X104610000Y-65770000D03*
X107150000Y-68310000D03*
X104610000Y-68310000D03*
X107150000Y-70850000D03*
X104610000Y-70850000D03*
X107150000Y-73390000D03*
X104610000Y-73390000D03*
X107150000Y-75930000D03*
X104610000Y-75930000D03*
X107150000Y-78470000D03*
X104610000Y-78470000D03*
X107150000Y-81010000D03*
X104610000Y-81010000D03*
X107150000Y-83550000D03*
X104610000Y-83550000D03*
X107150000Y-86090000D03*
X104610000Y-86090000D03*
X107150000Y-88630000D03*
X104610000Y-88630000D03*
X107150000Y-91170000D03*
X104610000Y-91170000D03*
X107150000Y-93710000D03*
X104610000Y-93710000D03*
X107150000Y-96250000D03*
X104610000Y-96250000D03*
X107150000Y-98790000D03*
X104610000Y-98790000D03*
X107150000Y-101330000D03*
X104610000Y-101330000D03*
X107150000Y-103870000D03*
X104610000Y-103870000D03*
X107150000Y-106410000D03*
X104610000Y-106410000D03*
X107150000Y-108950000D03*
X104610000Y-108950000D03*
X107150000Y-111490000D03*
X104610000Y-111490000D03*
X107150000Y-114030000D03*
X104610000Y-114030000D03*
X107150000Y-116570000D03*
X104610000Y-116570000D03*
X107150000Y-119110000D03*
X104610000Y-119110000D03*
X107150000Y-121650000D03*
X104610000Y-121650000D03*
X107150000Y-124190000D03*
X104610000Y-124190000D03*
X107150000Y-126730000D03*
X104610000Y-126730000D03*
X107150000Y-129270000D03*
X104610000Y-129270000D03*
X107150000Y-131810000D03*
X104610000Y-131810000D03*
X107150000Y-134350000D03*
X104610000Y-134350000D03*
X107150000Y-136890000D03*
X104610000Y-136890000D03*
X107150000Y-139430000D03*
X104610000Y-139430000D03*
X107150000Y-141970000D03*
X104610000Y-141970000D03*
D15*
X46189999Y-53089999D03*
D16*
X43650000Y-53090000D03*
X46190000Y-55630000D03*
X43650000Y-55630000D03*
X46190000Y-58170000D03*
X43650000Y-58170000D03*
X46190000Y-60710000D03*
X43650000Y-60710000D03*
X46190000Y-63250000D03*
X43650000Y-63250000D03*
X46190000Y-65790000D03*
X43650000Y-65790000D03*
X46190000Y-68330000D03*
X43650000Y-68330000D03*
X46190000Y-70870000D03*
X43650000Y-70870000D03*
X46190000Y-73410000D03*
X43650000Y-73410000D03*
X46190000Y-75950000D03*
X43650000Y-75950000D03*
X46190000Y-78490000D03*
X43650000Y-78490000D03*
X46190000Y-81030000D03*
X43650000Y-81030000D03*
X46190000Y-83570000D03*
X43650000Y-83570000D03*
X46190000Y-86110000D03*
X43650000Y-86110000D03*
X46190000Y-88650000D03*
X43650000Y-88650000D03*
X46190000Y-91190000D03*
X43650000Y-91190000D03*
X46190000Y-93730000D03*
X43650000Y-93730000D03*
X46190000Y-96270000D03*
X43650000Y-96270000D03*
X46190000Y-98810000D03*
X43650000Y-98810000D03*
X46190000Y-101350000D03*
X43650000Y-101350000D03*
X46190000Y-103890000D03*
X43650000Y-103890000D03*
X46190000Y-106430000D03*
X43650000Y-106430000D03*
X46190000Y-108970000D03*
X43650000Y-108970000D03*
X46190000Y-111510000D03*
X43650000Y-111510000D03*
X46190000Y-114050000D03*
X43650000Y-114050000D03*
X46190000Y-116590000D03*
X43650000Y-116590000D03*
X46190000Y-119130000D03*
X43650000Y-119130000D03*
X46190000Y-121670000D03*
X43650000Y-121670000D03*
X46190000Y-124210000D03*
X43650000Y-124210000D03*
X46190000Y-126750000D03*
X43650000Y-126750000D03*
X46190000Y-129290000D03*
X43650000Y-129290000D03*
X46190000Y-131830000D03*
X43650000Y-131830000D03*
X46190000Y-134370000D03*
X43650000Y-134370000D03*
X46190000Y-136910000D03*
X43650000Y-136910000D03*
X46190000Y-139450000D03*
X43650000Y-139450000D03*
X46190000Y-141990000D03*
X43650000Y-141990000D03*
%TD*%
M02*
