%TF.GenerationSoftware,KiCad,Pcbnew,(7.0.0)*%
%TF.CreationDate,2023-03-03T13:10:10-05:00*%
%TF.ProjectId,new-dev-board,6e65772d-6465-4762-9d62-6f6172642e6b,rev?*%
%TF.SameCoordinates,Original*%
%TF.FileFunction,Legend,Bot*%
%TF.FilePolarity,Positive*%
%FSLAX46Y46*%
G04 Gerber Fmt 4.6, Leading zero omitted, Abs format (unit mm)*
G04 Created by KiCad (PCBNEW (7.0.0)) date 2023-03-03 13:10:10*
%MOMM*%
%LPD*%
G01*
G04 APERTURE LIST*
%ADD10C,0.127000*%
%ADD11C,0.200000*%
G04 APERTURE END LIST*
D10*
%TO.C,A2*%
X153200000Y-46130000D02*
X153200000Y-151970000D01*
X153200000Y-46130000D02*
X137707200Y-46130000D01*
X153200000Y-45190000D02*
X137707200Y-45190000D01*
X153200000Y-22630000D02*
X153200000Y-45190000D01*
X151200000Y-153970000D02*
X85200000Y-153970000D01*
X134202000Y-46130000D02*
X115202800Y-46130000D01*
X134202000Y-45190000D02*
X115202800Y-45190000D01*
X110580000Y-46130000D02*
X103264800Y-46130000D01*
X110580000Y-45190000D02*
X103264800Y-45190000D01*
X99200800Y-46130000D02*
X83200000Y-46130000D01*
X99200800Y-45190000D02*
X83200000Y-45190000D01*
X85200000Y-20630000D02*
X151200000Y-20630000D01*
X83200000Y-151970000D02*
X83200000Y-46130000D01*
X83200000Y-45190000D02*
X83200000Y-22630000D01*
X151200000Y-153970000D02*
G75*
G03*
X153200000Y-151970000I1J1999999D01*
G01*
X153200000Y-22630000D02*
G75*
G03*
X151200000Y-20630000I-1999999J1D01*
G01*
X137707199Y-45190000D02*
G75*
G03*
X137707200Y-46130000I7462J-470000D01*
G01*
X134202001Y-46130000D02*
G75*
G03*
X134202000Y-45190000I-7462J470000D01*
G01*
X115202799Y-45190000D02*
G75*
G03*
X115202800Y-46130000I7461J-470000D01*
G01*
X110580001Y-46130000D02*
G75*
G03*
X110580000Y-45190000I-7461J470000D01*
G01*
X103264799Y-45190000D02*
G75*
G03*
X103264800Y-46130000I7461J-470000D01*
G01*
X99200801Y-46130000D02*
G75*
G03*
X99200800Y-45190000I-7461J470000D01*
G01*
X83200000Y-151970000D02*
G75*
G03*
X85200000Y-153970000I2000000J0D01*
G01*
X85200000Y-20630000D02*
G75*
G03*
X83200000Y-22630000I0J-2000000D01*
G01*
D11*
X151800000Y-52370000D02*
G75*
G03*
X151800000Y-52370000I-100000J0D01*
G01*
X144180000Y-85390000D02*
G75*
G03*
X144180000Y-85390000I-100000J0D01*
G01*
X144180000Y-62530000D02*
G75*
G03*
X144180000Y-62530000I-100000J0D01*
G01*
X98460000Y-80310000D02*
G75*
G03*
X98460000Y-80310000I-100000J0D01*
G01*
X98460000Y-53386000D02*
G75*
G03*
X98460000Y-53386000I-100000J0D01*
G01*
X90840000Y-52395400D02*
G75*
G03*
X90840000Y-52395400I-100000J0D01*
G01*
%TD*%
M02*
