M48
; DRILL file {KiCad (7.0.0)} date Fri Mar  3 04:22:40 2023
; FORMAT={-:-/ absolute / inch / decimal}
; #@! TF.CreationDate,2023-03-03T04:22:40-05:00
; #@! TF.GenerationSoftware,Kicad,Pcbnew,(7.0.0)
; #@! TF.FileFunction,MixedPlating,1,2
FMAT,2
INCH
; #@! TA.AperFunction,Plated,PTH,ComponentDrill
T1C0.0394
; #@! TA.AperFunction,Plated,PTH,ComponentDrill
T2C0.0402
; #@! TA.AperFunction,Plated,PTH,ComponentDrill
T3C0.0512
; #@! TA.AperFunction,NonPlated,NPTH,ComponentDrill
T4C0.1260
%
G90
G05
T1
X5.0055Y-0.9803
X5.0055Y-1.0803
X5.1055Y-0.9803
X5.1055Y-1.0803
X5.2055Y-0.9803
X5.2055Y-1.0803
X5.3055Y-0.9803
X5.3055Y-1.0803
X5.4055Y-0.9803
X5.4055Y-1.0803
X5.5055Y-0.9803
X5.5055Y-1.0803
X5.6055Y-0.9803
X5.6055Y-1.0803
X5.7055Y-0.9803
X5.7055Y-1.0803
X5.8055Y-0.9803
X5.8055Y-1.0803
X5.9055Y-0.9803
X5.9055Y-1.0803
X6.0055Y-0.9803
X6.0055Y-1.0803
X6.1055Y-0.9803
X6.1055Y-1.0803
X6.2055Y-0.9803
X6.2055Y-1.0803
X6.3055Y-0.9803
X6.3055Y-1.0803
X6.4055Y-0.9803
X6.4055Y-1.0803
X6.5055Y-0.9803
X6.5055Y-1.0803
X6.6055Y-0.9803
X6.6055Y-1.0803
X6.7055Y-0.9803
X6.7055Y-1.0803
X6.8055Y-0.9803
X6.8055Y-1.0803
X6.9055Y-0.9803
X6.9055Y-1.0803
T2
X1.0217Y-2.0898
X1.0217Y-2.1898
X1.0217Y-2.2898
X1.0217Y-2.3898
X1.0217Y-2.4898
X1.0217Y-2.5898
X1.0217Y-2.6898
X1.0217Y-2.7898
X1.0217Y-2.8898
X1.0217Y-2.9898
X1.0217Y-3.0898
X1.0217Y-3.1898
X1.0217Y-3.2898
X1.0217Y-3.3898
X1.0217Y-3.4898
X1.0217Y-3.5898
X1.0217Y-3.6898
X1.0217Y-3.7898
X1.0217Y-3.8898
X1.0217Y-3.9898
X1.0217Y-4.0898
X1.0217Y-4.1898
X1.0217Y-4.2898
X1.0217Y-4.3898
X1.0217Y-4.4898
X1.0217Y-4.5898
X1.0217Y-4.6898
X1.0217Y-4.7898
X1.0217Y-4.8898
X1.0217Y-4.9898
X1.0217Y-5.0898
X1.0217Y-5.1898
X1.0217Y-5.2898
X1.0217Y-5.3898
X1.0217Y-5.4898
X1.0217Y-5.5898
X1.1217Y-2.0898
X1.1217Y-2.1898
X1.1217Y-2.2898
X1.1217Y-2.3898
X1.1217Y-2.4898
X1.1217Y-2.5898
X1.1217Y-2.6898
X1.1217Y-2.7898
X1.1217Y-2.8898
X1.1217Y-2.9898
X1.1217Y-3.0898
X1.1217Y-3.1898
X1.1217Y-3.2898
X1.1217Y-3.3898
X1.1217Y-3.4898
X1.1217Y-3.5898
X1.1217Y-3.6898
X1.1217Y-3.7898
X1.1217Y-3.8898
X1.1217Y-3.9898
X1.1217Y-4.0898
X1.1217Y-4.1898
X1.1217Y-4.2898
X1.1217Y-4.3898
X1.1217Y-4.4898
X1.1217Y-4.5898
X1.1217Y-4.6898
X1.1217Y-4.7898
X1.1217Y-4.8898
X1.1217Y-4.9898
X1.1217Y-5.0898
X1.1217Y-5.1898
X1.1217Y-5.2898
X1.1217Y-5.3898
X1.1217Y-5.4898
X1.1217Y-5.5898
X1.3217Y-2.4898
X1.3217Y-2.5898
X1.3217Y-2.6898
X1.3217Y-2.7898
X1.3217Y-2.8898
X1.3217Y-2.9898
X1.3217Y-3.0898
X1.3217Y-3.1898
X1.3217Y-3.3898
X1.3217Y-3.4898
X1.3217Y-3.5898
X1.3217Y-3.6898
X1.3217Y-3.7898
X1.3217Y-3.8898
X1.3217Y-3.9898
X1.3217Y-4.0898
X1.3217Y-4.1898
X1.3217Y-4.2898
X1.3217Y-4.3898
X1.3217Y-4.4898
X1.3217Y-4.5898
X1.3217Y-4.6898
X1.3217Y-4.7898
X1.4217Y-2.4898
X1.4217Y-2.5898
X1.4217Y-2.6898
X1.4217Y-2.7898
X1.4217Y-2.8898
X1.4217Y-2.9898
X1.4217Y-3.0898
X1.4217Y-3.1898
X1.4217Y-3.3898
X1.4217Y-3.4898
X1.4217Y-3.5898
X1.4217Y-3.6898
X1.4217Y-3.7898
X1.4217Y-3.8898
X1.4217Y-3.9898
X1.4217Y-4.0898
X1.4217Y-4.1898
X1.4217Y-4.2898
X1.4217Y-4.3898
X1.4217Y-4.4898
X1.4217Y-4.5898
X1.4217Y-4.6898
X1.4217Y-4.7898
X1.7185Y-2.0902
X1.7185Y-2.1902
X1.7185Y-2.2902
X1.7185Y-2.3902
X1.7185Y-2.4902
X1.7185Y-2.5902
X1.7185Y-2.6902
X1.7185Y-2.7902
X1.7185Y-2.8902
X1.7185Y-2.9902
X1.7185Y-3.0902
X1.7185Y-3.1902
X1.7185Y-3.2902
X1.7185Y-3.3902
X1.7185Y-3.4902
X1.7185Y-3.5902
X1.7185Y-3.6902
X1.7185Y-3.7902
X1.7185Y-3.8902
X1.7185Y-3.9902
X1.7185Y-4.0902
X1.7185Y-4.1902
X1.7185Y-4.2902
X1.7185Y-4.3902
X1.7185Y-4.4902
X1.7185Y-4.5902
X1.7185Y-4.6902
X1.7185Y-4.7902
X1.7185Y-4.8902
X1.7185Y-4.9902
X1.7185Y-5.0902
X1.7185Y-5.1902
X1.7185Y-5.2902
X1.7185Y-5.3902
X1.7185Y-5.4902
X1.7185Y-5.5902
X1.8185Y-2.0902
X1.8185Y-2.1902
X1.8185Y-2.2902
X1.8185Y-2.3902
X1.8185Y-2.4902
X1.8185Y-2.5902
X1.8185Y-2.6902
X1.8185Y-2.7902
X1.8185Y-2.8902
X1.8185Y-2.9902
X1.8185Y-3.0902
X1.8185Y-3.1902
X1.8185Y-3.2902
X1.8185Y-3.3902
X1.8185Y-3.4902
X1.8185Y-3.5902
X1.8185Y-3.6902
X1.8185Y-3.7902
X1.8185Y-3.8902
X1.8185Y-3.9902
X1.8185Y-4.0902
X1.8185Y-4.1902
X1.8185Y-4.2902
X1.8185Y-4.3902
X1.8185Y-4.4902
X1.8185Y-4.5902
X1.8185Y-4.6902
X1.8185Y-4.7902
X1.8185Y-4.8902
X1.8185Y-4.9902
X1.8185Y-5.0902
X1.8185Y-5.1902
X1.8185Y-5.2902
X1.8185Y-5.3902
X1.8185Y-5.4902
X1.8185Y-5.5902
X2.0185Y-2.1294
X2.0185Y-2.2294
X2.0185Y-2.3294
X2.0185Y-2.4294
X2.0185Y-2.5294
X2.0185Y-2.6294
X2.0185Y-2.7294
X2.0185Y-2.8294
X2.0185Y-2.9294
X2.0185Y-3.0294
X2.0185Y-3.1894
X2.0185Y-3.2894
X2.0185Y-3.3894
X2.0185Y-3.4894
X2.0185Y-3.5894
X2.0185Y-3.6894
X2.0185Y-3.7894
X2.0185Y-3.8894
X2.0185Y-3.9894
X2.0185Y-4.0894
X2.0185Y-4.1894
X2.0185Y-4.2894
X2.0185Y-4.3894
X2.0185Y-4.4894
X2.0185Y-4.5894
X2.0185Y-4.6894
X2.0185Y-4.7894
X2.1185Y-2.1294
X2.1185Y-2.2294
X2.1185Y-2.3294
X2.1185Y-2.4294
X2.1185Y-2.5294
X2.1185Y-2.6294
X2.1185Y-2.7294
X2.1185Y-2.8294
X2.1185Y-2.9294
X2.1185Y-3.0294
X2.1185Y-3.1894
X2.1185Y-3.2894
X2.1185Y-3.3894
X2.1185Y-3.4894
X2.1185Y-3.5894
X2.1185Y-3.6894
X2.1185Y-3.7894
X2.1185Y-3.8894
X2.1185Y-3.9894
X2.1185Y-4.0894
X2.1185Y-4.1894
X2.1185Y-4.2894
X2.1185Y-4.3894
X2.1185Y-4.4894
X2.1185Y-4.5894
X2.1185Y-4.6894
X2.1185Y-4.7894
X3.1217Y-2.1298
X3.1217Y-2.2298
X3.1217Y-2.3298
X3.1217Y-2.4298
X3.1217Y-2.5298
X3.1217Y-2.6298
X3.1217Y-2.7298
X3.1217Y-2.8298
X3.1217Y-2.9298
X3.1217Y-3.0298
X3.1217Y-3.1898
X3.1217Y-3.2898
X3.1217Y-3.3898
X3.1217Y-3.4898
X3.1217Y-3.5898
X3.1217Y-3.6898
X3.1217Y-3.7898
X3.1217Y-3.8898
X3.1217Y-3.9898
X3.1217Y-4.0898
X3.1217Y-4.1898
X3.1217Y-4.2898
X3.1217Y-4.3898
X3.1217Y-4.4898
X3.1217Y-4.5898
X3.1217Y-4.6898
X3.1217Y-4.7898
X3.2217Y-2.1298
X3.2217Y-2.2298
X3.2217Y-2.3298
X3.2217Y-2.4298
X3.2217Y-2.5298
X3.2217Y-2.6298
X3.2217Y-2.7298
X3.2217Y-2.8298
X3.2217Y-2.9298
X3.2217Y-3.0298
X3.2217Y-3.1898
X3.2217Y-3.2898
X3.2217Y-3.3898
X3.2217Y-3.4898
X3.2217Y-3.5898
X3.2217Y-3.6898
X3.2217Y-3.7898
X3.2217Y-3.8898
X3.2217Y-3.9898
X3.2217Y-4.0898
X3.2217Y-4.1898
X3.2217Y-4.2898
X3.2217Y-4.3898
X3.2217Y-4.4898
X3.2217Y-4.5898
X3.2217Y-4.6898
X3.2217Y-4.7898
X3.4217Y-2.0906
X3.4217Y-2.1906
X3.4217Y-2.2906
X3.4217Y-2.3906
X3.4217Y-2.4906
X3.4217Y-2.5906
X3.4217Y-2.6906
X3.4217Y-2.7906
X3.4217Y-2.8906
X3.4217Y-2.9906
X3.4217Y-3.0906
X3.4217Y-3.1906
X3.4217Y-3.2906
X3.4217Y-3.3906
X3.4217Y-3.4906
X3.4217Y-3.5906
X3.4217Y-3.6906
X3.4217Y-3.7906
X3.4217Y-3.8906
X3.4217Y-3.9906
X3.4217Y-4.0906
X3.4217Y-4.1906
X3.4217Y-4.2906
X3.4217Y-4.3906
X3.4217Y-4.4906
X3.4217Y-4.5906
X3.4217Y-4.6906
X3.4217Y-4.7906
X3.4217Y-4.8906
X3.4217Y-4.9906
X3.4217Y-5.0906
X3.4217Y-5.1906
X3.4217Y-5.2906
X3.4217Y-5.3906
X3.4217Y-5.4906
X3.4217Y-5.5906
X3.5217Y-2.0906
X3.5217Y-2.1906
X3.5217Y-2.2906
X3.5217Y-2.3906
X3.5217Y-2.4906
X3.5217Y-2.5906
X3.5217Y-2.6906
X3.5217Y-2.7906
X3.5217Y-2.8906
X3.5217Y-2.9906
X3.5217Y-3.0906
X3.5217Y-3.1906
X3.5217Y-3.2906
X3.5217Y-3.3906
X3.5217Y-3.4906
X3.5217Y-3.5906
X3.5217Y-3.6906
X3.5217Y-3.7906
X3.5217Y-3.8906
X3.5217Y-3.9906
X3.5217Y-4.0906
X3.5217Y-4.1906
X3.5217Y-4.2906
X3.5217Y-4.3906
X3.5217Y-4.4906
X3.5217Y-4.5906
X3.5217Y-4.6906
X3.5217Y-4.7906
X3.5217Y-4.8906
X3.5217Y-4.9906
X3.5217Y-5.0906
X3.5217Y-5.1906
X3.5217Y-5.2906
X3.5217Y-5.3906
X3.5217Y-5.4906
X3.5217Y-5.5906
X3.8185Y-2.4894
X3.8185Y-2.5894
X3.8185Y-2.6894
X3.8185Y-2.7894
X3.8185Y-2.8894
X3.8185Y-2.9894
X3.8185Y-3.0894
X3.8185Y-3.1894
X3.8185Y-3.3894
X3.8185Y-3.4894
X3.8185Y-3.5894
X3.8185Y-3.6894
X3.8185Y-3.7894
X3.8185Y-3.8894
X3.8185Y-3.9894
X3.8185Y-4.0894
X3.8185Y-4.1894
X3.8185Y-4.2894
X3.8185Y-4.3894
X3.8185Y-4.4894
X3.8185Y-4.5894
X3.8185Y-4.6894
X3.8185Y-4.7894
X3.9185Y-2.4894
X3.9185Y-2.5894
X3.9185Y-2.6894
X3.9185Y-2.7894
X3.9185Y-2.8894
X3.9185Y-2.9894
X3.9185Y-3.0894
X3.9185Y-3.1894
X3.9185Y-3.3894
X3.9185Y-3.4894
X3.9185Y-3.5894
X3.9185Y-3.6894
X3.9185Y-3.7894
X3.9185Y-3.8894
X3.9185Y-3.9894
X3.9185Y-4.0894
X3.9185Y-4.1894
X3.9185Y-4.2894
X3.9185Y-4.3894
X3.9185Y-4.4894
X3.9185Y-4.5894
X3.9185Y-4.6894
X3.9185Y-4.7894
X4.1185Y-2.0894
X4.1185Y-2.1894
X4.1185Y-2.2894
X4.1185Y-2.3894
X4.1185Y-2.4894
X4.1185Y-2.5894
X4.1185Y-2.6894
X4.1185Y-2.7894
X4.1185Y-2.8894
X4.1185Y-2.9894
X4.1185Y-3.0894
X4.1185Y-3.1894
X4.1185Y-3.2894
X4.1185Y-3.3894
X4.1185Y-3.4894
X4.1185Y-3.5894
X4.1185Y-3.6894
X4.1185Y-3.7894
X4.1185Y-3.8894
X4.1185Y-3.9894
X4.1185Y-4.0894
X4.1185Y-4.1894
X4.1185Y-4.2894
X4.1185Y-4.3894
X4.1185Y-4.4894
X4.1185Y-4.5894
X4.1185Y-4.6894
X4.1185Y-4.7894
X4.1185Y-4.8894
X4.1185Y-4.9894
X4.1185Y-5.0894
X4.1185Y-5.1894
X4.1185Y-5.2894
X4.1185Y-5.3894
X4.1185Y-5.4894
X4.1185Y-5.5894
X4.2185Y-2.0894
X4.2185Y-2.1894
X4.2185Y-2.2894
X4.2185Y-2.3894
X4.2185Y-2.4894
X4.2185Y-2.5894
X4.2185Y-2.6894
X4.2185Y-2.7894
X4.2185Y-2.8894
X4.2185Y-2.9894
X4.2185Y-3.0894
X4.2185Y-3.1894
X4.2185Y-3.2894
X4.2185Y-3.3894
X4.2185Y-3.4894
X4.2185Y-3.5894
X4.2185Y-3.6894
X4.2185Y-3.7894
X4.2185Y-3.8894
X4.2185Y-3.9894
X4.2185Y-4.0894
X4.2185Y-4.1894
X4.2185Y-4.2894
X4.2185Y-4.3894
X4.2185Y-4.4894
X4.2185Y-4.5894
X4.2185Y-4.6894
X4.2185Y-4.7894
X4.2185Y-4.8894
X4.2185Y-4.9894
X4.2185Y-5.0894
X4.2185Y-5.1894
X4.2185Y-5.2894
X4.2185Y-5.3894
X4.2185Y-5.4894
X4.2185Y-5.5894
T3
X4.6661Y-5.2992
X4.8661Y-5.2992
T4
X1.3217Y-1.9398
X1.3717Y-4.9398
X2.0185Y-1.9894
X2.0685Y-4.9394
X2.6185Y-3.9894
X2.6217Y-3.9898
X3.1717Y-4.9398
X3.2217Y-1.9898
X3.8685Y-4.9394
X3.9185Y-1.9394
T0
M30
