M48
; DRILL file {KiCad (7.0.0)} date Fri Mar  3 14:11:33 2023
; FORMAT={-:-/ absolute / inch / decimal}
; #@! TF.CreationDate,2023-03-03T14:11:33-05:00
; #@! TF.GenerationSoftware,Kicad,Pcbnew,(7.0.0)
; #@! TF.FileFunction,MixedPlating,1,2
FMAT,2
INCH
; #@! TA.AperFunction,Plated,PTH,ComponentDrill
T1C0.0394
; #@! TA.AperFunction,Plated,PTH,ComponentDrill
T2C0.0402
; #@! TA.AperFunction,Plated,PTH,ComponentDrill
T3C0.0512
; #@! TA.AperFunction,NonPlated,NPTH,ComponentDrill
T4C0.1260
%
G90
G05
T1
X6.9681Y-0.9528
X6.9681Y-1.0528
X7.0681Y-0.9528
X7.0681Y-1.0528
X7.1681Y-0.9528
X7.1681Y-1.0528
X7.2681Y-0.9528
X7.2681Y-1.0528
X7.3681Y-0.9528
X7.3681Y-1.0528
X7.4681Y-0.9528
X7.4681Y-1.0528
X7.5681Y-0.9528
X7.5681Y-1.0528
X7.6681Y-0.9528
X7.6681Y-1.0528
X7.7681Y-0.9528
X7.7681Y-1.0528
X7.8681Y-0.9528
X7.8681Y-1.0528
X7.9681Y-0.9528
X7.9681Y-1.0528
X8.0681Y-0.9528
X8.0681Y-1.0528
X8.1681Y-0.9528
X8.1681Y-1.0528
X8.2681Y-0.9528
X8.2681Y-1.0528
X8.3681Y-0.9528
X8.3681Y-1.0528
X8.4681Y-0.9528
X8.4681Y-1.0528
X8.5681Y-0.9528
X8.5681Y-1.0528
X8.6681Y-0.9528
X8.6681Y-1.0528
X8.7681Y-0.9528
X8.7681Y-1.0528
X8.8681Y-0.9528
X8.8681Y-1.0528
T2
X2.9843Y-2.0622
X2.9843Y-2.1622
X2.9843Y-2.2622
X2.9843Y-2.3622
X2.9843Y-2.4622
X2.9843Y-2.5622
X2.9843Y-2.6622
X2.9843Y-2.7622
X2.9843Y-2.8622
X2.9843Y-2.9622
X2.9843Y-3.0622
X2.9843Y-3.1622
X2.9843Y-3.2622
X2.9843Y-3.3622
X2.9843Y-3.4622
X2.9843Y-3.5622
X2.9843Y-3.6622
X2.9843Y-3.7622
X2.9843Y-3.8622
X2.9843Y-3.9622
X2.9843Y-4.0622
X2.9843Y-4.1622
X2.9843Y-4.2622
X2.9843Y-4.3622
X2.9843Y-4.4622
X2.9843Y-4.5622
X2.9843Y-4.6622
X2.9843Y-4.7622
X2.9843Y-4.8622
X2.9843Y-4.9622
X2.9843Y-5.0622
X2.9843Y-5.1622
X2.9843Y-5.2622
X2.9843Y-5.3622
X2.9843Y-5.4622
X2.9843Y-5.5622
X3.0843Y-2.0622
X3.0843Y-2.1622
X3.0843Y-2.2622
X3.0843Y-2.3622
X3.0843Y-2.4622
X3.0843Y-2.5622
X3.0843Y-2.6622
X3.0843Y-2.7622
X3.0843Y-2.8622
X3.0843Y-2.9622
X3.0843Y-3.0622
X3.0843Y-3.1622
X3.0843Y-3.2622
X3.0843Y-3.3622
X3.0843Y-3.4622
X3.0843Y-3.5622
X3.0843Y-3.6622
X3.0843Y-3.7622
X3.0843Y-3.8622
X3.0843Y-3.9622
X3.0843Y-4.0622
X3.0843Y-4.1622
X3.0843Y-4.2622
X3.0843Y-4.3622
X3.0843Y-4.4622
X3.0843Y-4.5622
X3.0843Y-4.6622
X3.0843Y-4.7622
X3.0843Y-4.8622
X3.0843Y-4.9622
X3.0843Y-5.0622
X3.0843Y-5.1622
X3.0843Y-5.2622
X3.0843Y-5.3622
X3.0843Y-5.4622
X3.0843Y-5.5622
X3.2843Y-2.4622
X3.2843Y-2.5622
X3.2843Y-2.6622
X3.2843Y-2.7622
X3.2843Y-2.8622
X3.2843Y-2.9622
X3.2843Y-3.0622
X3.2843Y-3.1622
X3.2843Y-3.3622
X3.2843Y-3.4622
X3.2843Y-3.5622
X3.2843Y-3.6622
X3.2843Y-3.7622
X3.2843Y-3.8622
X3.2843Y-3.9622
X3.2843Y-4.0622
X3.2843Y-4.1622
X3.2843Y-4.2622
X3.2843Y-4.3622
X3.2843Y-4.4622
X3.2843Y-4.5622
X3.2843Y-4.6622
X3.2843Y-4.7622
X3.3843Y-2.4622
X3.3843Y-2.5622
X3.3843Y-2.6622
X3.3843Y-2.7622
X3.3843Y-2.8622
X3.3843Y-2.9622
X3.3843Y-3.0622
X3.3843Y-3.1622
X3.3843Y-3.3622
X3.3843Y-3.4622
X3.3843Y-3.5622
X3.3843Y-3.6622
X3.3843Y-3.7622
X3.3843Y-3.8622
X3.3843Y-3.9622
X3.3843Y-4.0622
X3.3843Y-4.1622
X3.3843Y-4.2622
X3.3843Y-4.3622
X3.3843Y-4.4622
X3.3843Y-4.5622
X3.3843Y-4.6622
X3.3843Y-4.7622
X3.6811Y-2.0626
X3.6811Y-2.1626
X3.6811Y-2.2626
X3.6811Y-2.3626
X3.6811Y-2.4626
X3.6811Y-2.5626
X3.6811Y-2.6626
X3.6811Y-2.7626
X3.6811Y-2.8626
X3.6811Y-2.9626
X3.6811Y-3.0626
X3.6811Y-3.1626
X3.6811Y-3.2626
X3.6811Y-3.3626
X3.6811Y-3.4626
X3.6811Y-3.5626
X3.6811Y-3.6626
X3.6811Y-3.7626
X3.6811Y-3.8626
X3.6811Y-3.9626
X3.6811Y-4.0626
X3.6811Y-4.1626
X3.6811Y-4.2626
X3.6811Y-4.3626
X3.6811Y-4.4626
X3.6811Y-4.5626
X3.6811Y-4.6626
X3.6811Y-4.7626
X3.6811Y-4.8626
X3.6811Y-4.9626
X3.6811Y-5.0626
X3.6811Y-5.1626
X3.6811Y-5.2626
X3.6811Y-5.3626
X3.6811Y-5.4626
X3.6811Y-5.5626
X3.7811Y-2.0626
X3.7811Y-2.1626
X3.7811Y-2.2626
X3.7811Y-2.3626
X3.7811Y-2.4626
X3.7811Y-2.5626
X3.7811Y-2.6626
X3.7811Y-2.7626
X3.7811Y-2.8626
X3.7811Y-2.9626
X3.7811Y-3.0626
X3.7811Y-3.1626
X3.7811Y-3.2626
X3.7811Y-3.3626
X3.7811Y-3.4626
X3.7811Y-3.5626
X3.7811Y-3.6626
X3.7811Y-3.7626
X3.7811Y-3.8626
X3.7811Y-3.9626
X3.7811Y-4.0626
X3.7811Y-4.1626
X3.7811Y-4.2626
X3.7811Y-4.3626
X3.7811Y-4.4626
X3.7811Y-4.5626
X3.7811Y-4.6626
X3.7811Y-4.7626
X3.7811Y-4.8626
X3.7811Y-4.9626
X3.7811Y-5.0626
X3.7811Y-5.1626
X3.7811Y-5.2626
X3.7811Y-5.3626
X3.7811Y-5.4626
X3.7811Y-5.5626
X3.9811Y-2.1018
X3.9811Y-2.2018
X3.9811Y-2.3018
X3.9811Y-2.4018
X3.9811Y-2.5018
X3.9811Y-2.6018
X3.9811Y-2.7018
X3.9811Y-2.8018
X3.9811Y-2.9018
X3.9811Y-3.0018
X3.9811Y-3.1618
X3.9811Y-3.2618
X3.9811Y-3.3618
X3.9811Y-3.4618
X3.9811Y-3.5618
X3.9811Y-3.6618
X3.9811Y-3.7618
X3.9811Y-3.8618
X3.9811Y-3.9618
X3.9811Y-4.0618
X3.9811Y-4.1618
X3.9811Y-4.2618
X3.9811Y-4.3618
X3.9811Y-4.4618
X3.9811Y-4.5618
X3.9811Y-4.6618
X3.9811Y-4.7618
X4.0811Y-2.1018
X4.0811Y-2.2018
X4.0811Y-2.3018
X4.0811Y-2.4018
X4.0811Y-2.5018
X4.0811Y-2.6018
X4.0811Y-2.7018
X4.0811Y-2.8018
X4.0811Y-2.9018
X4.0811Y-3.0018
X4.0811Y-3.1618
X4.0811Y-3.2618
X4.0811Y-3.3618
X4.0811Y-3.4618
X4.0811Y-3.5618
X4.0811Y-3.6618
X4.0811Y-3.7618
X4.0811Y-3.8618
X4.0811Y-3.9618
X4.0811Y-4.0618
X4.0811Y-4.1618
X4.0811Y-4.2618
X4.0811Y-4.3618
X4.0811Y-4.4618
X4.0811Y-4.5618
X4.0811Y-4.6618
X4.0811Y-4.7618
X5.0843Y-2.1022
X5.0843Y-2.2022
X5.0843Y-2.3022
X5.0843Y-2.4022
X5.0843Y-2.5022
X5.0843Y-2.6022
X5.0843Y-2.7022
X5.0843Y-2.8022
X5.0843Y-2.9022
X5.0843Y-3.0022
X5.0843Y-3.1622
X5.0843Y-3.2622
X5.0843Y-3.3622
X5.0843Y-3.4622
X5.0843Y-3.5622
X5.0843Y-3.6622
X5.0843Y-3.7622
X5.0843Y-3.8622
X5.0843Y-3.9622
X5.0843Y-4.0622
X5.0843Y-4.1622
X5.0843Y-4.2622
X5.0843Y-4.3622
X5.0843Y-4.4622
X5.0843Y-4.5622
X5.0843Y-4.6622
X5.0843Y-4.7622
X5.1843Y-2.1022
X5.1843Y-2.2022
X5.1843Y-2.3022
X5.1843Y-2.4022
X5.1843Y-2.5022
X5.1843Y-2.6022
X5.1843Y-2.7022
X5.1843Y-2.8022
X5.1843Y-2.9022
X5.1843Y-3.0022
X5.1843Y-3.1622
X5.1843Y-3.2622
X5.1843Y-3.3622
X5.1843Y-3.4622
X5.1843Y-3.5622
X5.1843Y-3.6622
X5.1843Y-3.7622
X5.1843Y-3.8622
X5.1843Y-3.9622
X5.1843Y-4.0622
X5.1843Y-4.1622
X5.1843Y-4.2622
X5.1843Y-4.3622
X5.1843Y-4.4622
X5.1843Y-4.5622
X5.1843Y-4.6622
X5.1843Y-4.7622
X5.3843Y-2.063
X5.3843Y-2.163
X5.3843Y-2.263
X5.3843Y-2.363
X5.3843Y-2.463
X5.3843Y-2.563
X5.3843Y-2.663
X5.3843Y-2.763
X5.3843Y-2.863
X5.3843Y-2.963
X5.3843Y-3.063
X5.3843Y-3.163
X5.3843Y-3.263
X5.3843Y-3.363
X5.3843Y-3.463
X5.3843Y-3.563
X5.3843Y-3.663
X5.3843Y-3.763
X5.3843Y-3.863
X5.3843Y-3.963
X5.3843Y-4.063
X5.3843Y-4.163
X5.3843Y-4.263
X5.3843Y-4.363
X5.3843Y-4.463
X5.3843Y-4.563
X5.3843Y-4.663
X5.3843Y-4.763
X5.3843Y-4.863
X5.3843Y-4.963
X5.3843Y-5.063
X5.3843Y-5.163
X5.3843Y-5.263
X5.3843Y-5.363
X5.3843Y-5.463
X5.3843Y-5.563
X5.4843Y-2.063
X5.4843Y-2.163
X5.4843Y-2.263
X5.4843Y-2.363
X5.4843Y-2.463
X5.4843Y-2.563
X5.4843Y-2.663
X5.4843Y-2.763
X5.4843Y-2.863
X5.4843Y-2.963
X5.4843Y-3.063
X5.4843Y-3.163
X5.4843Y-3.263
X5.4843Y-3.363
X5.4843Y-3.463
X5.4843Y-3.563
X5.4843Y-3.663
X5.4843Y-3.763
X5.4843Y-3.863
X5.4843Y-3.963
X5.4843Y-4.063
X5.4843Y-4.163
X5.4843Y-4.263
X5.4843Y-4.363
X5.4843Y-4.463
X5.4843Y-4.563
X5.4843Y-4.663
X5.4843Y-4.763
X5.4843Y-4.863
X5.4843Y-4.963
X5.4843Y-5.063
X5.4843Y-5.163
X5.4843Y-5.263
X5.4843Y-5.363
X5.4843Y-5.463
X5.4843Y-5.563
X5.7811Y-2.4618
X5.7811Y-2.5618
X5.7811Y-2.6618
X5.7811Y-2.7618
X5.7811Y-2.8618
X5.7811Y-2.9618
X5.7811Y-3.0618
X5.7811Y-3.1618
X5.7811Y-3.3618
X5.7811Y-3.4618
X5.7811Y-3.5618
X5.7811Y-3.6618
X5.7811Y-3.7618
X5.7811Y-3.8618
X5.7811Y-3.9618
X5.7811Y-4.0618
X5.7811Y-4.1618
X5.7811Y-4.2618
X5.7811Y-4.3618
X5.7811Y-4.4618
X5.7811Y-4.5618
X5.7811Y-4.6618
X5.7811Y-4.7618
X5.8811Y-2.4618
X5.8811Y-2.5618
X5.8811Y-2.6618
X5.8811Y-2.7618
X5.8811Y-2.8618
X5.8811Y-2.9618
X5.8811Y-3.0618
X5.8811Y-3.1618
X5.8811Y-3.3618
X5.8811Y-3.4618
X5.8811Y-3.5618
X5.8811Y-3.6618
X5.8811Y-3.7618
X5.8811Y-3.8618
X5.8811Y-3.9618
X5.8811Y-4.0618
X5.8811Y-4.1618
X5.8811Y-4.2618
X5.8811Y-4.3618
X5.8811Y-4.4618
X5.8811Y-4.5618
X5.8811Y-4.6618
X5.8811Y-4.7618
X6.0811Y-2.0618
X6.0811Y-2.1618
X6.0811Y-2.2618
X6.0811Y-2.3618
X6.0811Y-2.4618
X6.0811Y-2.5618
X6.0811Y-2.6618
X6.0811Y-2.7618
X6.0811Y-2.8618
X6.0811Y-2.9618
X6.0811Y-3.0618
X6.0811Y-3.1618
X6.0811Y-3.2618
X6.0811Y-3.3618
X6.0811Y-3.4618
X6.0811Y-3.5618
X6.0811Y-3.6618
X6.0811Y-3.7618
X6.0811Y-3.8618
X6.0811Y-3.9618
X6.0811Y-4.0618
X6.0811Y-4.1618
X6.0811Y-4.2618
X6.0811Y-4.3618
X6.0811Y-4.4618
X6.0811Y-4.5618
X6.0811Y-4.6618
X6.0811Y-4.7618
X6.0811Y-4.8618
X6.0811Y-4.9618
X6.0811Y-5.0618
X6.0811Y-5.1618
X6.0811Y-5.2618
X6.0811Y-5.3618
X6.0811Y-5.4618
X6.0811Y-5.5618
X6.1811Y-2.0618
X6.1811Y-2.1618
X6.1811Y-2.2618
X6.1811Y-2.3618
X6.1811Y-2.4618
X6.1811Y-2.5618
X6.1811Y-2.6618
X6.1811Y-2.7618
X6.1811Y-2.8618
X6.1811Y-2.9618
X6.1811Y-3.0618
X6.1811Y-3.1618
X6.1811Y-3.2618
X6.1811Y-3.3618
X6.1811Y-3.4618
X6.1811Y-3.5618
X6.1811Y-3.6618
X6.1811Y-3.7618
X6.1811Y-3.8618
X6.1811Y-3.9618
X6.1811Y-4.0618
X6.1811Y-4.1618
X6.1811Y-4.2618
X6.1811Y-4.3618
X6.1811Y-4.4618
X6.1811Y-4.5618
X6.1811Y-4.6618
X6.1811Y-4.7618
X6.1811Y-4.8618
X6.1811Y-4.9618
X6.1811Y-5.0618
X6.1811Y-5.1618
X6.1811Y-5.2618
X6.1811Y-5.3618
X6.1811Y-5.4618
X6.1811Y-5.5618
T3
X6.6287Y-5.2717
X6.8287Y-5.2717
T4
X3.2843Y-1.9122
X3.3343Y-4.9122
X3.9811Y-1.9618
X4.0311Y-4.9118
X4.5811Y-3.9618
X4.5843Y-3.9622
X5.1343Y-4.9122
X5.1843Y-1.9622
X5.8311Y-4.9118
X5.8811Y-1.9118
T0
M30
