%TF.GenerationSoftware,KiCad,Pcbnew,(7.0.0)*%
%TF.CreationDate,2023-03-03T13:10:10-05:00*%
%TF.ProjectId,new-dev-board,6e65772d-6465-4762-9d62-6f6172642e6b,rev?*%
%TF.SameCoordinates,Original*%
%TF.FileFunction,Soldermask,Bot*%
%TF.FilePolarity,Negative*%
%FSLAX46Y46*%
G04 Gerber Fmt 4.6, Leading zero omitted, Abs format (unit mm)*
G04 Created by KiCad (PCBNEW (7.0.0)) date 2023-03-03 13:10:10*
%MOMM*%
%LPD*%
G01*
G04 APERTURE LIST*
%ADD10R,1.700000X1.700000*%
%ADD11O,1.700000X1.700000*%
%ADD12R,2.600000X2.600000*%
%ADD13C,2.600000*%
%ADD14C,3.200000*%
%ADD15R,1.530000X1.530000*%
%ADD16C,1.530000*%
G04 APERTURE END LIST*
D10*
%TO.C,J1*%
X169939999Y-26739999D03*
D11*
X169939999Y-24199999D03*
X172479999Y-26739999D03*
X172479999Y-24199999D03*
X175019999Y-26739999D03*
X175019999Y-24199999D03*
X177559999Y-26739999D03*
X177559999Y-24199999D03*
X180099999Y-26739999D03*
X180099999Y-24199999D03*
X182639999Y-26739999D03*
X182639999Y-24199999D03*
X185179999Y-26739999D03*
X185179999Y-24199999D03*
X187719999Y-26739999D03*
X187719999Y-24199999D03*
X190259999Y-26739999D03*
X190259999Y-24199999D03*
X192799999Y-26739999D03*
X192799999Y-24199999D03*
X195339999Y-26739999D03*
X195339999Y-24199999D03*
X197879999Y-26739999D03*
X197879999Y-24199999D03*
X200419999Y-26739999D03*
X200419999Y-24199999D03*
X202959999Y-26739999D03*
X202959999Y-24199999D03*
X205499999Y-26739999D03*
X205499999Y-24199999D03*
X208039999Y-26739999D03*
X208039999Y-24199999D03*
X210579999Y-26739999D03*
X210579999Y-24199999D03*
X213119999Y-26739999D03*
X213119999Y-24199999D03*
X215659999Y-26739999D03*
X215659999Y-24199999D03*
X218199999Y-26739999D03*
X218199999Y-24199999D03*
%TD*%
D12*
%TO.C,Je1*%
X161319999Y-133899999D03*
D13*
X166400000Y-133900000D03*
%TD*%
D14*
%TO.C,A1*%
X76370000Y-48570000D03*
X77640000Y-124770000D03*
X109390000Y-100640000D03*
X123360000Y-124770000D03*
X124630000Y-49840000D03*
D15*
X122089999Y-53395999D03*
D16*
X124630000Y-53396000D03*
X122090000Y-55936000D03*
X124630000Y-55936000D03*
X122090000Y-58476000D03*
X124630000Y-58476000D03*
X122090000Y-61016000D03*
X124630000Y-61016000D03*
X122090000Y-63556000D03*
X124630000Y-63556000D03*
X122090000Y-66096000D03*
X124630000Y-66096000D03*
X122090000Y-68636000D03*
X124630000Y-68636000D03*
X122090000Y-71176000D03*
X124630000Y-71176000D03*
X122090000Y-73716000D03*
X124630000Y-73716000D03*
X122090000Y-76256000D03*
X124630000Y-76256000D03*
D15*
X76369999Y-62539999D03*
D16*
X78910000Y-62540000D03*
X76370000Y-65080000D03*
X78910000Y-65080000D03*
X76370000Y-67620000D03*
X78910000Y-67620000D03*
X76370000Y-70160000D03*
X78910000Y-70160000D03*
X76370000Y-72700000D03*
X78910000Y-72700000D03*
X76370000Y-75240000D03*
X78910000Y-75240000D03*
X76370000Y-77780000D03*
X78910000Y-77780000D03*
X76370000Y-80320000D03*
X78910000Y-80320000D03*
D15*
X76369999Y-85399999D03*
D16*
X78910000Y-85400000D03*
X76370000Y-87940000D03*
X78910000Y-87940000D03*
X76370000Y-90480000D03*
X78910000Y-90480000D03*
X76370000Y-93020000D03*
X78910000Y-93020000D03*
X76370000Y-95560000D03*
X78910000Y-95560000D03*
X76370000Y-98100000D03*
X78910000Y-98100000D03*
X76370000Y-100640000D03*
X78910000Y-100640000D03*
X76370000Y-103180000D03*
X78910000Y-103180000D03*
X76370000Y-105720000D03*
X78910000Y-105720000D03*
X76370000Y-108260000D03*
X78910000Y-108260000D03*
X76370000Y-110800000D03*
X78910000Y-110800000D03*
X76370000Y-113340000D03*
X78910000Y-113340000D03*
X76370000Y-115880000D03*
X78910000Y-115880000D03*
X76370000Y-118420000D03*
X78910000Y-118420000D03*
X76370000Y-120960000D03*
X78910000Y-120960000D03*
D15*
X122089999Y-80319999D03*
D16*
X124630000Y-80320000D03*
X122090000Y-82860000D03*
X124630000Y-82860000D03*
X122090000Y-85400000D03*
X124630000Y-85400000D03*
X122090000Y-87940000D03*
X124630000Y-87940000D03*
X122090000Y-90480000D03*
X124630000Y-90480000D03*
X122090000Y-93020000D03*
X124630000Y-93020000D03*
X122090000Y-95560000D03*
X124630000Y-95560000D03*
X122090000Y-98100000D03*
X124630000Y-98100000D03*
X122090000Y-100640000D03*
X124630000Y-100640000D03*
X122090000Y-103180000D03*
X124630000Y-103180000D03*
X122090000Y-105720000D03*
X124630000Y-105720000D03*
X122090000Y-108260000D03*
X124630000Y-108260000D03*
X122090000Y-110800000D03*
X124630000Y-110800000D03*
X122090000Y-113340000D03*
X124630000Y-113340000D03*
X122090000Y-115880000D03*
X124630000Y-115880000D03*
X122090000Y-118420000D03*
X124630000Y-118420000D03*
X122090000Y-120960000D03*
X124630000Y-120960000D03*
D15*
X68749999Y-52379999D03*
D16*
X71290000Y-52380000D03*
X68750000Y-54920000D03*
X71290000Y-54920000D03*
X68750000Y-57460000D03*
X71290000Y-57460000D03*
X68750000Y-60000000D03*
X71290000Y-60000000D03*
X68750000Y-62540000D03*
X71290000Y-62540000D03*
X68750000Y-65080000D03*
X71290000Y-65080000D03*
X68750000Y-67620000D03*
X71290000Y-67620000D03*
X68750000Y-70160000D03*
X71290000Y-70160000D03*
X68750000Y-72700000D03*
X71290000Y-72700000D03*
X68750000Y-75240000D03*
X71290000Y-75240000D03*
X68750000Y-77780000D03*
X71290000Y-77780000D03*
X68750000Y-80320000D03*
X71290000Y-80320000D03*
X68750000Y-82860000D03*
X71290000Y-82860000D03*
X68750000Y-85400000D03*
X71290000Y-85400000D03*
X68750000Y-87940000D03*
X71290000Y-87940000D03*
X68750000Y-90480000D03*
X71290000Y-90480000D03*
X68750000Y-93020000D03*
X71290000Y-93020000D03*
X68750000Y-95560000D03*
X71290000Y-95560000D03*
X68750000Y-98100000D03*
X71290000Y-98100000D03*
X68750000Y-100640000D03*
X71290000Y-100640000D03*
X68750000Y-103180000D03*
X71290000Y-103180000D03*
X68750000Y-105720000D03*
X71290000Y-105720000D03*
X68750000Y-108260000D03*
X71290000Y-108260000D03*
X68750000Y-110800000D03*
X71290000Y-110800000D03*
X68750000Y-113340000D03*
X71290000Y-113340000D03*
X68750000Y-115880000D03*
X71290000Y-115880000D03*
X68750000Y-118420000D03*
X71290000Y-118420000D03*
X68750000Y-120960000D03*
X71290000Y-120960000D03*
X68750000Y-123500000D03*
X71290000Y-123500000D03*
X68750000Y-126040000D03*
X71290000Y-126040000D03*
X68750000Y-128580000D03*
X71290000Y-128580000D03*
X68750000Y-131120000D03*
X71290000Y-131120000D03*
X68750000Y-133660000D03*
X71290000Y-133660000D03*
X68750000Y-136200000D03*
X71290000Y-136200000D03*
X68750000Y-138740000D03*
X71290000Y-138740000D03*
X68750000Y-141280000D03*
X71290000Y-141280000D03*
D15*
X129709999Y-52399999D03*
D16*
X132250000Y-52400000D03*
X129710000Y-54940000D03*
X132250000Y-54940000D03*
X129710000Y-57480000D03*
X132250000Y-57480000D03*
X129710000Y-60020000D03*
X132250000Y-60020000D03*
X129710000Y-62560000D03*
X132250000Y-62560000D03*
X129710000Y-65100000D03*
X132250000Y-65100000D03*
X129710000Y-67640000D03*
X132250000Y-67640000D03*
X129710000Y-70180000D03*
X132250000Y-70180000D03*
X129710000Y-72720000D03*
X132250000Y-72720000D03*
X129710000Y-75260000D03*
X132250000Y-75260000D03*
X129710000Y-77800000D03*
X132250000Y-77800000D03*
X129710000Y-80340000D03*
X132250000Y-80340000D03*
X129710000Y-82880000D03*
X132250000Y-82880000D03*
X129710000Y-85420000D03*
X132250000Y-85420000D03*
X129710000Y-87960000D03*
X132250000Y-87960000D03*
X129710000Y-90500000D03*
X132250000Y-90500000D03*
X129710000Y-93040000D03*
X132250000Y-93040000D03*
X129710000Y-95580000D03*
X132250000Y-95580000D03*
X129710000Y-98120000D03*
X132250000Y-98120000D03*
X129710000Y-100660000D03*
X132250000Y-100660000D03*
X129710000Y-103200000D03*
X132250000Y-103200000D03*
X129710000Y-105740000D03*
X132250000Y-105740000D03*
X129710000Y-108280000D03*
X132250000Y-108280000D03*
X129710000Y-110820000D03*
X132250000Y-110820000D03*
X129710000Y-113360000D03*
X132250000Y-113360000D03*
X129710000Y-115900000D03*
X132250000Y-115900000D03*
X129710000Y-118440000D03*
X132250000Y-118440000D03*
X129710000Y-120980000D03*
X132250000Y-120980000D03*
X129710000Y-123520000D03*
X132250000Y-123520000D03*
X129710000Y-126060000D03*
X132250000Y-126060000D03*
X129710000Y-128600000D03*
X132250000Y-128600000D03*
X129710000Y-131140000D03*
X132250000Y-131140000D03*
X129710000Y-133680000D03*
X132250000Y-133680000D03*
X129710000Y-136220000D03*
X132250000Y-136220000D03*
X129710000Y-138760000D03*
X132250000Y-138760000D03*
X129710000Y-141300000D03*
X132250000Y-141300000D03*
%TD*%
D14*
%TO.C,A2*%
X142330000Y-48560000D03*
X141060000Y-124760000D03*
X109310000Y-100630000D03*
X95340000Y-124760000D03*
X94070000Y-49830000D03*
D15*
X96609999Y-53385999D03*
D16*
X94070000Y-53386000D03*
X96610000Y-55926000D03*
X94070000Y-55926000D03*
X96610000Y-58466000D03*
X94070000Y-58466000D03*
X96610000Y-61006000D03*
X94070000Y-61006000D03*
X96610000Y-63546000D03*
X94070000Y-63546000D03*
X96610000Y-66086000D03*
X94070000Y-66086000D03*
X96610000Y-68626000D03*
X94070000Y-68626000D03*
X96610000Y-71166000D03*
X94070000Y-71166000D03*
X96610000Y-73706000D03*
X94070000Y-73706000D03*
X96610000Y-76246000D03*
X94070000Y-76246000D03*
D15*
X142329999Y-62529999D03*
D16*
X139790000Y-62530000D03*
X142330000Y-65070000D03*
X139790000Y-65070000D03*
X142330000Y-67610000D03*
X139790000Y-67610000D03*
X142330000Y-70150000D03*
X139790000Y-70150000D03*
X142330000Y-72690000D03*
X139790000Y-72690000D03*
X142330000Y-75230000D03*
X139790000Y-75230000D03*
X142330000Y-77770000D03*
X139790000Y-77770000D03*
X142330000Y-80310000D03*
X139790000Y-80310000D03*
D15*
X142329999Y-85389999D03*
D16*
X139790000Y-85390000D03*
X142330000Y-87930000D03*
X139790000Y-87930000D03*
X142330000Y-90470000D03*
X139790000Y-90470000D03*
X142330000Y-93010000D03*
X139790000Y-93010000D03*
X142330000Y-95550000D03*
X139790000Y-95550000D03*
X142330000Y-98090000D03*
X139790000Y-98090000D03*
X142330000Y-100630000D03*
X139790000Y-100630000D03*
X142330000Y-103170000D03*
X139790000Y-103170000D03*
X142330000Y-105710000D03*
X139790000Y-105710000D03*
X142330000Y-108250000D03*
X139790000Y-108250000D03*
X142330000Y-110790000D03*
X139790000Y-110790000D03*
X142330000Y-113330000D03*
X139790000Y-113330000D03*
X142330000Y-115870000D03*
X139790000Y-115870000D03*
X142330000Y-118410000D03*
X139790000Y-118410000D03*
X142330000Y-120950000D03*
X139790000Y-120950000D03*
D15*
X96609999Y-80309999D03*
D16*
X94070000Y-80310000D03*
X96610000Y-82850000D03*
X94070000Y-82850000D03*
X96610000Y-85390000D03*
X94070000Y-85390000D03*
X96610000Y-87930000D03*
X94070000Y-87930000D03*
X96610000Y-90470000D03*
X94070000Y-90470000D03*
X96610000Y-93010000D03*
X94070000Y-93010000D03*
X96610000Y-95550000D03*
X94070000Y-95550000D03*
X96610000Y-98090000D03*
X94070000Y-98090000D03*
X96610000Y-100630000D03*
X94070000Y-100630000D03*
X96610000Y-103170000D03*
X94070000Y-103170000D03*
X96610000Y-105710000D03*
X94070000Y-105710000D03*
X96610000Y-108250000D03*
X94070000Y-108250000D03*
X96610000Y-110790000D03*
X94070000Y-110790000D03*
X96610000Y-113330000D03*
X94070000Y-113330000D03*
X96610000Y-115870000D03*
X94070000Y-115870000D03*
X96610000Y-118410000D03*
X94070000Y-118410000D03*
X96610000Y-120950000D03*
X94070000Y-120950000D03*
D15*
X149949999Y-52369999D03*
D16*
X147410000Y-52370000D03*
X149950000Y-54910000D03*
X147410000Y-54910000D03*
X149950000Y-57450000D03*
X147410000Y-57450000D03*
X149950000Y-59990000D03*
X147410000Y-59990000D03*
X149950000Y-62530000D03*
X147410000Y-62530000D03*
X149950000Y-65070000D03*
X147410000Y-65070000D03*
X149950000Y-67610000D03*
X147410000Y-67610000D03*
X149950000Y-70150000D03*
X147410000Y-70150000D03*
X149950000Y-72690000D03*
X147410000Y-72690000D03*
X149950000Y-75230000D03*
X147410000Y-75230000D03*
X149950000Y-77770000D03*
X147410000Y-77770000D03*
X149950000Y-80310000D03*
X147410000Y-80310000D03*
X149950000Y-82850000D03*
X147410000Y-82850000D03*
X149950000Y-85390000D03*
X147410000Y-85390000D03*
X149950000Y-87930000D03*
X147410000Y-87930000D03*
X149950000Y-90470000D03*
X147410000Y-90470000D03*
X149950000Y-93010000D03*
X147410000Y-93010000D03*
X149950000Y-95550000D03*
X147410000Y-95550000D03*
X149950000Y-98090000D03*
X147410000Y-98090000D03*
X149950000Y-100630000D03*
X147410000Y-100630000D03*
X149950000Y-103170000D03*
X147410000Y-103170000D03*
X149950000Y-105710000D03*
X147410000Y-105710000D03*
X149950000Y-108250000D03*
X147410000Y-108250000D03*
X149950000Y-110790000D03*
X147410000Y-110790000D03*
X149950000Y-113330000D03*
X147410000Y-113330000D03*
X149950000Y-115870000D03*
X147410000Y-115870000D03*
X149950000Y-118410000D03*
X147410000Y-118410000D03*
X149950000Y-120950000D03*
X147410000Y-120950000D03*
X149950000Y-123490000D03*
X147410000Y-123490000D03*
X149950000Y-126030000D03*
X147410000Y-126030000D03*
X149950000Y-128570000D03*
X147410000Y-128570000D03*
X149950000Y-131110000D03*
X147410000Y-131110000D03*
X149950000Y-133650000D03*
X147410000Y-133650000D03*
X149950000Y-136190000D03*
X147410000Y-136190000D03*
X149950000Y-138730000D03*
X147410000Y-138730000D03*
X149950000Y-141270000D03*
X147410000Y-141270000D03*
D15*
X88989999Y-52389999D03*
D16*
X86450000Y-52390000D03*
X88990000Y-54930000D03*
X86450000Y-54930000D03*
X88990000Y-57470000D03*
X86450000Y-57470000D03*
X88990000Y-60010000D03*
X86450000Y-60010000D03*
X88990000Y-62550000D03*
X86450000Y-62550000D03*
X88990000Y-65090000D03*
X86450000Y-65090000D03*
X88990000Y-67630000D03*
X86450000Y-67630000D03*
X88990000Y-70170000D03*
X86450000Y-70170000D03*
X88990000Y-72710000D03*
X86450000Y-72710000D03*
X88990000Y-75250000D03*
X86450000Y-75250000D03*
X88990000Y-77790000D03*
X86450000Y-77790000D03*
X88990000Y-80330000D03*
X86450000Y-80330000D03*
X88990000Y-82870000D03*
X86450000Y-82870000D03*
X88990000Y-85410000D03*
X86450000Y-85410000D03*
X88990000Y-87950000D03*
X86450000Y-87950000D03*
X88990000Y-90490000D03*
X86450000Y-90490000D03*
X88990000Y-93030000D03*
X86450000Y-93030000D03*
X88990000Y-95570000D03*
X86450000Y-95570000D03*
X88990000Y-98110000D03*
X86450000Y-98110000D03*
X88990000Y-100650000D03*
X86450000Y-100650000D03*
X88990000Y-103190000D03*
X86450000Y-103190000D03*
X88990000Y-105730000D03*
X86450000Y-105730000D03*
X88990000Y-108270000D03*
X86450000Y-108270000D03*
X88990000Y-110810000D03*
X86450000Y-110810000D03*
X88990000Y-113350000D03*
X86450000Y-113350000D03*
X88990000Y-115890000D03*
X86450000Y-115890000D03*
X88990000Y-118430000D03*
X86450000Y-118430000D03*
X88990000Y-120970000D03*
X86450000Y-120970000D03*
X88990000Y-123510000D03*
X86450000Y-123510000D03*
X88990000Y-126050000D03*
X86450000Y-126050000D03*
X88990000Y-128590000D03*
X86450000Y-128590000D03*
X88990000Y-131130000D03*
X86450000Y-131130000D03*
X88990000Y-133670000D03*
X86450000Y-133670000D03*
X88990000Y-136210000D03*
X86450000Y-136210000D03*
X88990000Y-138750000D03*
X86450000Y-138750000D03*
X88990000Y-141290000D03*
X86450000Y-141290000D03*
%TD*%
M02*
