<?xml version="1.0" standalone="no"?>
<!DOCTYPE svg PUBLIC "-//W3C//DTD SVG 20010904//EN"
 "http://www.w3.org/TR/2001/REC-SVG-20010904/DTD/svg10.dtd">
<svg version="1.0" xmlns="http://www.w3.org/2000/svg"
 width="700.000000pt" height="700.000000pt" viewBox="0 0 700.000000 700.000000"
 preserveAspectRatio="xMidYMid meet">
<metadata>
Created by potrace 1.14, written by Peter Selinger 2001-2017
</metadata>
<g transform="translate(0.000000,700.000000) scale(0.100000,-0.100000)"
fill="#000000" stroke="none">
<path d="M2104 6411 c-22 -10 -57 -35 -77 -56 -56 -57 -67 -105 -67 -282 l0
-153 -450 0 c-498 0 -502 -1 -540 -62 -23 -39 -26 -97 -6 -136 8 -15 235 -245
505 -511 l491 -483 0 -244 0 -244 -432 0 c-238 0 -451 -5 -473 -10 -58 -13
-105 -67 -105 -120 0 -23 6 -53 14 -68 8 -15 235 -247 505 -517 l491 -490 0
-242 0 -243 -432 0 c-238 0 -451 -5 -472 -10 -83 -19 -130 -114 -93 -186 8
-16 236 -249 506 -518 l491 -489 0 -287 c0 -322 5 -351 67 -415 20 -21 55 -46
77 -56 39 -18 98 -19 1396 -19 1298 0 1357 1 1396 19 22 10 57 35 77 56 62 64
67 93 67 414 l0 286 491 490 c270 270 497 503 506 519 38 72 -10 167 -93 186
-21 5 -234 10 -471 10 l-433 0 0 243 0 242 491 490 c270 270 497 502 505 517
8 15 14 45 14 68 0 53 -47 107 -105 120 -22 5 -235 10 -472 10 l-433 0 0 243
0 244 477 469 c262 258 489 487 505 508 34 48 37 106 8 154 -38 61 -42 62
-540 62 l-450 0 0 153 c0 178 -11 223 -68 282 -20 21 -55 46 -77 56 -38 18
-105 19 -1395 19 -1298 0 -1357 -1 -1396 -19z m1571 -446 c185 -47 360 -185
448 -354 149 -285 100 -610 -128 -836 -374 -371 -1011 -214 -1171 290 -129
405 128 830 551 911 82 16 214 11 300 -11z m-1 -1755 c386 -98 620 -510 505
-886 -37 -121 -86 -201 -179 -294 -129 -129 -247 -188 -417 -209 -220 -27
-420 44 -584 208 -72 72 -94 102 -132 181 -102 210 -102 418 0 630 85 176 261
319 455 370 100 26 250 26 352 0z m4 -1754 c201 -55 366 -193 457 -381 57
-118 70 -177 69 -310 -1 -127 -18 -205 -70 -309 -89 -177 -226 -295 -419 -362
-72 -26 -93 -28 -215 -28 -119 0 -144 3 -215 27 -113 38 -198 90 -285 177 -87
87 -139 172 -177 285 -24 71 -27 96 -27 215 0 122 2 143 28 215 92 266 286
430 576 489 44 8 223 -3 278 -18z"/>
</g>
</svg>
