%TF.GenerationSoftware,KiCad,Pcbnew,(7.0.0)*%
%TF.CreationDate,2023-03-03T14:11:26-05:00*%
%TF.ProjectId,new-dev-board,6e65772d-6465-4762-9d62-6f6172642e6b,rev?*%
%TF.SameCoordinates,Original*%
%TF.FileFunction,Legend,Bot*%
%TF.FilePolarity,Positive*%
%FSLAX46Y46*%
G04 Gerber Fmt 4.6, Leading zero omitted, Abs format (unit mm)*
G04 Created by KiCad (PCBNEW (7.0.0)) date 2023-03-03 14:11:26*
%MOMM*%
%LPD*%
G01*
G04 APERTURE LIST*
%ADD10C,0.127000*%
%ADD11C,0.200000*%
G04 APERTURE END LIST*
D10*
%TO.C,A2*%
X160250000Y-46130000D02*
X160250000Y-151970000D01*
X160250000Y-46130000D02*
X144757200Y-46130000D01*
X160250000Y-45190000D02*
X144757200Y-45190000D01*
X160250000Y-22630000D02*
X160250000Y-45190000D01*
X158250000Y-153970000D02*
X92250000Y-153970000D01*
X141252000Y-46130000D02*
X122252800Y-46130000D01*
X141252000Y-45190000D02*
X122252800Y-45190000D01*
X117630000Y-46130000D02*
X110314800Y-46130000D01*
X117630000Y-45190000D02*
X110314800Y-45190000D01*
X106250800Y-46130000D02*
X90250000Y-46130000D01*
X106250800Y-45190000D02*
X90250000Y-45190000D01*
X92250000Y-20630000D02*
X158250000Y-20630000D01*
X90250000Y-151970000D02*
X90250000Y-46130000D01*
X90250000Y-45190000D02*
X90250000Y-22630000D01*
X158250000Y-153970000D02*
G75*
G03*
X160250000Y-151970000I1J1999999D01*
G01*
X160250000Y-22630000D02*
G75*
G03*
X158250000Y-20630000I-1999999J1D01*
G01*
X144757199Y-45190000D02*
G75*
G03*
X144757200Y-46130000I7462J-470000D01*
G01*
X141252001Y-46130000D02*
G75*
G03*
X141252000Y-45190000I-7462J470000D01*
G01*
X122252799Y-45190000D02*
G75*
G03*
X122252800Y-46130000I7461J-470000D01*
G01*
X117630001Y-46130000D02*
G75*
G03*
X117630000Y-45190000I-7461J470000D01*
G01*
X110314799Y-45190000D02*
G75*
G03*
X110314800Y-46130000I7461J-470000D01*
G01*
X106250801Y-46130000D02*
G75*
G03*
X106250800Y-45190000I-7461J470000D01*
G01*
X90250000Y-151970000D02*
G75*
G03*
X92250000Y-153970000I2000000J0D01*
G01*
X92250000Y-20630000D02*
G75*
G03*
X90250000Y-22630000I0J-2000000D01*
G01*
D11*
X158850000Y-52370000D02*
G75*
G03*
X158850000Y-52370000I-100000J0D01*
G01*
X151230000Y-85390000D02*
G75*
G03*
X151230000Y-85390000I-100000J0D01*
G01*
X151230000Y-62530000D02*
G75*
G03*
X151230000Y-62530000I-100000J0D01*
G01*
X105510000Y-80310000D02*
G75*
G03*
X105510000Y-80310000I-100000J0D01*
G01*
X105510000Y-53386000D02*
G75*
G03*
X105510000Y-53386000I-100000J0D01*
G01*
X97890000Y-52395400D02*
G75*
G03*
X97890000Y-52395400I-100000J0D01*
G01*
%TD*%
M02*
